<svg width="150" height="110" viewBox="0 0 150 110" fill="none" xmlns="http://www.w3.org/2000/svg">
<path d="M47.5055 69.0871C47.7797 69.0195 48.2016 68.9814 48.6109 68.9814C48.9948 68.9814 49.4294 69.0406 49.7373 69.2562C50.0285 69.4506 50.1972 69.7549 50.1972 70.1649C50.1972 70.6932 49.9525 71.1032 49.6276 71.3568C49.2817 71.6273 48.7838 71.7541 48.2691 71.7541C48.1214 71.7541 47.9906 71.733 47.8978 71.7288L47.6067 73.2588H46.7207L47.5055 69.0871ZM48.0371 70.9849C48.1299 71.0018 48.2311 71.0187 48.3915 71.0187C48.9273 71.0187 49.2901 70.6721 49.2901 70.2452C49.2901 69.8394 48.9948 69.7084 48.6488 69.7084C48.4758 69.7084 48.3535 69.7169 48.2775 69.7296L48.0371 70.9849Z" fill="#666464"/>
<path d="M52.6993 73.082C52.3406 73.268 51.8934 73.3271 51.5474 73.3271C50.6741 73.3271 50.2227 72.8326 50.2227 72.0253C50.2227 71.087 50.9019 70.1064 52.0158 70.1064C52.6402 70.1064 53.0874 70.4615 53.0874 71.0321C53.0874 71.814 52.328 72.0972 51.0876 72.0634C51.096 72.1564 51.1255 72.2916 51.1888 72.3804C51.307 72.541 51.5179 72.6213 51.7837 72.6213C52.117 72.6213 52.3997 72.5452 52.6444 72.4269L52.6993 73.082ZM51.8976 70.77C51.4757 70.77 51.231 71.1251 51.1677 71.404C51.8808 71.4082 52.2309 71.3153 52.2309 71.0279C52.2309 70.8757 52.1044 70.77 51.8976 70.77Z" fill="#666464"/>
<path d="M53.2734 73.2553L53.6152 71.4252C53.7038 70.956 53.7418 70.4446 53.7713 70.1783H54.5603C54.5392 70.3854 54.5265 70.5967 54.5012 70.8081H54.5223C54.7417 70.3981 55.0792 70.1064 55.5011 70.1064C55.556 70.1064 55.615 70.1064 55.6699 70.1149L55.4969 70.9983C55.4547 70.9898 55.3999 70.9898 55.3492 70.9898C54.7712 70.9898 54.497 71.5097 54.3873 72.1141L54.1721 73.2595H53.2734V73.2553Z" fill="#666464"/>
<path d="M55.7132 72.4464C55.8904 72.5351 56.2153 72.6619 56.5106 72.6619C56.768 72.6619 56.903 72.5351 56.903 72.383C56.903 72.2308 56.8017 72.1251 56.5191 71.9857C56.1647 71.8081 55.8735 71.5503 55.8735 71.1657C55.8735 70.5233 56.4305 70.1006 57.2279 70.1006C57.5865 70.1006 57.865 70.1767 58.0211 70.257L57.8017 70.8994C57.6751 70.8402 57.4515 70.7684 57.1899 70.7684C56.9452 70.7684 56.7891 70.8698 56.7891 71.0389C56.7891 71.1657 56.9157 71.2714 57.1604 71.3897C57.4979 71.5588 57.8523 71.8039 57.8523 72.235C57.8523 72.9409 57.2532 73.3213 56.4347 73.317C56.0423 73.3128 55.6795 73.2114 55.498 73.0761L55.7132 72.4464Z" fill="#666464"/>
<path d="M61.4596 71.3728C61.4596 72.5013 60.6833 73.3255 59.6201 73.3255C58.8396 73.3255 58.3164 72.8183 58.3164 72.049C58.3164 70.9839 59.059 70.1006 60.1517 70.1006C60.9786 70.1006 61.4596 70.6669 61.4596 71.3728ZM59.2573 72.0321C59.2573 72.3956 59.4345 72.6323 59.7551 72.6323C60.2403 72.6323 60.5188 71.9011 60.5188 71.377C60.5188 71.0938 60.3964 70.7937 60.0378 70.7937C59.5146 70.7937 59.2573 71.5545 59.2573 72.0321Z" fill="#666464"/>
<path d="M61.7188 73.2553L62.1069 71.18C62.1871 70.7869 62.2335 70.453 62.2757 70.1783H63.0773L63.0182 70.6897H63.0351C63.322 70.2924 63.7017 70.1064 64.111 70.1064C64.613 70.1064 64.9041 70.4192 64.9041 70.9518C64.9041 71.0912 64.8788 71.3195 64.8535 71.4716L64.516 73.2595H63.6047L63.9338 71.5562C63.9506 71.4463 63.9633 71.3279 63.9633 71.2138C63.9633 70.9898 63.8874 70.8419 63.6553 70.8419C63.36 70.8419 63.014 71.2138 62.8874 71.8943L62.6301 73.2595H61.7188V73.2553Z" fill="#666464"/>
<path d="M67.2826 73.2537C67.291 73.0719 67.3079 72.8648 67.3206 72.645H67.3079C67.0252 73.1564 66.6286 73.3213 66.27 73.3213C65.7173 73.3213 65.3418 72.8944 65.3418 72.2519C65.3418 71.2122 66.0337 70.1006 67.5399 70.1006C67.9154 70.1006 68.3036 70.1724 68.561 70.2527L68.2403 71.8673C68.1644 72.2646 68.1011 72.869 68.1137 73.2537H67.2826ZM67.5399 70.8191C67.4767 70.8064 67.3923 70.7938 67.2952 70.7938C66.7088 70.7938 66.2869 71.5123 66.2869 72.0871C66.2869 72.3872 66.405 72.5985 66.6539 72.5985C66.924 72.5985 67.2615 72.29 67.4049 71.5334L67.5399 70.8191Z" fill="#666464"/>
<path d="M68.7441 73.2555L69.6006 68.7837H70.5077L69.6512 73.2555H68.7441Z" fill="#666464"/>
<path d="M71.5664 73.2535L72.1529 70.1724H73.0557L72.4735 73.2535H71.5664ZM72.7098 69.792C72.4609 69.792 72.2752 69.6144 72.2752 69.3482C72.2752 69.0396 72.5199 68.8325 72.7942 68.8325C73.0684 68.8325 73.254 69.01 73.254 69.2805C73.254 69.6018 73.0093 69.792 72.7224 69.792H72.7098Z" fill="#666464"/>
<path d="M73.2266 73.2553L73.6147 71.18C73.6991 70.7869 73.7413 70.453 73.7877 70.1783H74.5851L74.526 70.6897H74.5387C74.8256 70.2924 75.2053 70.1064 75.6146 70.1064C76.1166 70.1064 76.4078 70.4192 76.4078 70.9518C76.4078 71.0912 76.3824 71.3195 76.3571 71.4716L76.0154 73.2595H75.1041L75.4289 71.5562C75.45 71.4463 75.4585 71.3279 75.4585 71.2138C75.4585 70.9898 75.3825 70.8419 75.1547 70.8419C74.8593 70.8419 74.5134 71.2138 74.3868 71.8943L74.1294 73.2595H73.2266V73.2553Z" fill="#666464"/>
<path d="M76.8809 73.2546L77.3323 70.8581H76.9315L77.0623 70.1691H77.4673L77.4926 70.0085C77.5517 69.6408 77.6994 69.2562 78.0074 69.0026C78.2563 68.7955 78.5812 68.7109 78.8807 68.7109C79.1001 68.7109 79.2689 68.7448 79.3617 68.787L79.2014 69.5055C79.1254 69.476 79.0326 69.4548 78.9103 69.4548C78.6149 69.4548 78.4419 69.7084 78.3829 70.017L78.3491 70.1691H78.9609L78.8301 70.8581H78.2268L77.7795 73.2546H76.8809Z" fill="#666464"/>
<path d="M82.0862 71.3728C82.0862 72.5013 81.3099 73.3255 80.251 73.3255C79.4662 73.3255 78.9473 72.8183 78.9473 72.049C78.9473 70.9839 79.6898 70.1006 80.7826 70.1006C81.6053 70.1006 82.0862 70.6669 82.0862 71.3728ZM79.8839 72.0321C79.8839 72.3956 80.0611 72.6323 80.3818 72.6323C80.8669 72.6323 81.1496 71.9011 81.1496 71.377C81.1496 71.0938 81.023 70.7937 80.6686 70.7937C80.1413 70.7937 79.8839 71.5545 79.8839 72.0321Z" fill="#666464"/>
<path d="M82.3535 73.2553L82.6995 71.4252C82.7881 70.956 82.8261 70.4446 82.8598 70.1783H83.6446C83.6277 70.3854 83.615 70.5967 83.5897 70.8081H83.6108C83.8302 70.3981 84.1719 70.1064 84.5939 70.1064C84.6487 70.1064 84.7078 70.1064 84.7626 70.1149L84.5896 70.9983C84.5474 70.9898 84.4968 70.9898 84.4462 70.9898C83.8639 70.9898 83.5939 71.5097 83.48 72.1141L83.2648 73.2595H82.3535V73.2553Z" fill="#666464"/>
<path d="M84.6797 73.2536L85.0636 71.1784C85.1311 70.7853 85.1818 70.4514 85.2197 70.1767H85.9961L85.9412 70.6754H85.9539C86.2365 70.2781 86.612 70.1006 87.0086 70.1006C87.4981 70.1006 87.7132 70.4176 87.7385 70.6881C88.017 70.2908 88.3967 70.1006 88.8018 70.1006C89.2743 70.1006 89.5485 70.4091 89.5485 70.9332C89.5485 71.06 89.5232 71.3052 89.4979 71.4616L89.1646 73.2579H88.2828L88.595 71.5672C88.6161 71.4489 88.6372 71.3179 88.6372 71.1953C88.6372 70.9797 88.5402 70.8318 88.3334 70.8318C88.0339 70.8318 87.7343 71.2376 87.612 71.8589L87.3546 73.2536H86.4812L86.8019 71.563C86.823 71.4362 86.8399 71.3179 86.8399 71.2122C86.8399 70.9966 86.7724 70.8318 86.553 70.8318C86.245 70.8318 85.9159 71.2587 85.8104 71.8715L85.5615 73.2579H84.6797V73.2536Z" fill="#666464"/>
<path d="M91.9196 73.2537C91.928 73.0719 91.9449 72.8648 91.9576 72.645H91.9449C91.6622 73.1564 91.2656 73.3213 90.907 73.3213C90.3501 73.3213 89.9746 72.8944 89.9746 72.2519C89.9746 71.2122 90.6623 70.1006 92.177 70.1006C92.5482 70.1006 92.9406 70.1724 93.1938 70.2527L92.8773 71.8673C92.7972 72.2646 92.7381 72.869 92.7508 73.2537H91.9196ZM92.177 70.8191C92.1095 70.8064 92.0251 70.7938 91.9323 70.7938C91.3458 70.7938 90.9197 71.5123 90.9197 72.0871C90.9197 72.3872 91.0378 72.5985 91.291 72.5985C91.561 72.5985 91.8985 72.29 92.0377 71.5334L92.177 70.8191Z" fill="#666464"/>
<path d="M95.1395 69.3403L94.9834 70.173H95.6416L95.5023 70.8619H94.8484L94.6416 71.9101C94.6121 72.0327 94.591 72.1933 94.591 72.3032C94.591 72.4554 94.6543 72.561 94.8526 72.561C94.9285 72.561 95.0256 72.561 95.0973 72.5483L94.996 73.2584C94.8779 73.3049 94.6501 73.3303 94.4644 73.3303C93.916 73.3303 93.6586 73.0555 93.6586 72.6625C93.6586 72.4976 93.6755 72.3286 93.7303 72.0919L93.9624 70.8661H93.5742L93.6966 70.1772H94.0932L94.2071 69.5982L95.1395 69.3403Z" fill="#666464"/>
<path d="M95.5879 73.2535L96.1743 70.1724H97.0814L96.495 73.2535H95.5879ZM96.7355 69.792C96.4823 69.792 96.3009 69.6144 96.3009 69.3482C96.3009 69.0396 96.5456 68.8325 96.8241 68.8325C97.0941 68.8325 97.2797 69.01 97.2797 69.2805C97.2797 69.6018 97.035 69.792 96.7439 69.792H96.7355Z" fill="#666464"/>
<path d="M100.498 71.3728C100.498 72.5013 99.7221 73.3255 98.6589 73.3255C97.8825 73.3255 97.3594 72.8183 97.3594 72.049C97.3594 70.9839 98.1019 70.1006 99.1947 70.1006C100.022 70.1006 100.498 70.6669 100.498 71.3728ZM98.296 72.0321C98.296 72.3956 98.4732 72.6323 98.7939 72.6323C99.2791 72.6323 99.5575 71.9011 99.5575 71.377C99.5575 71.0938 99.431 70.7937 99.0723 70.7937C98.5576 70.7937 98.296 71.5545 98.296 72.0321Z" fill="#666464"/>
<path d="M100.762 73.2553L101.15 71.18C101.23 70.7869 101.276 70.453 101.319 70.1783H102.12L102.061 70.6897H102.074C102.365 70.2924 102.74 70.1064 103.15 70.1064C103.656 70.1064 103.943 70.4192 103.943 70.9518C103.943 71.0912 103.918 71.3195 103.897 71.4716L103.555 73.2595H102.643L102.968 71.5562C102.989 71.4463 103.002 71.3279 103.002 71.2138C103.002 70.9898 102.93 70.8419 102.694 70.8419C102.395 70.8419 102.049 71.2138 101.926 71.8943L101.669 73.2595H100.762V73.2553Z" fill="#666464"/>
<path d="M47.517 78.7403C47.4284 78.6473 47.3651 78.5544 47.2892 78.4529C47.0192 78.6516 46.669 78.8122 46.1542 78.8122C45.3611 78.8122 44.8379 78.3768 44.8379 77.6921C44.8379 77.0497 45.3146 76.6397 45.8631 76.3819L45.8673 76.365C45.7366 76.1452 45.6353 75.9043 45.6353 75.6465C45.6353 74.9617 46.1796 74.4292 46.9643 74.4292C47.5972 74.4292 48.0402 74.8054 48.0402 75.3717C48.0402 75.8662 47.6689 76.2297 46.9896 76.5467V76.5636C47.1626 76.8257 47.3862 77.1427 47.5592 77.3794C47.8292 77.0708 48.0106 76.6777 48.1372 76.3016H48.9726C48.7448 76.9525 48.4494 77.4977 47.9727 77.9542C48.1372 78.1951 48.3524 78.4698 48.5887 78.7488H47.517V78.7403ZM46.9263 77.9288C46.7112 77.6499 46.4243 77.2483 46.1796 76.8637C45.9855 77.0032 45.7619 77.2145 45.7619 77.5315C45.7619 77.8612 45.9813 78.1317 46.4074 78.1317C46.6352 78.1317 46.7998 78.0429 46.9263 77.9288ZM46.4454 75.545C46.4454 75.7394 46.5171 75.917 46.6352 76.0733C46.9643 75.9254 47.2301 75.6887 47.2301 75.376C47.2301 75.1773 47.1246 75.0082 46.8799 75.0082C46.6352 75.0082 46.4454 75.2407 46.4454 75.545Z" fill="#666464"/>
<path d="M51.9021 74.4917L51.0962 78.7395H50.1934L50.9992 74.4917H51.9021Z" fill="#666464"/>
<path d="M51.8848 78.741L52.2771 76.6615C52.3573 76.2726 52.4037 75.9387 52.4459 75.6597H53.2433L53.1885 76.1712H53.2011C53.488 75.7739 53.8677 75.5879 54.2728 75.5879C54.7748 75.5879 55.0702 75.8964 55.0702 76.4332C55.0702 76.5727 55.0449 76.8009 55.0195 76.9489L54.682 78.7367H53.7707L54.0998 77.0292C54.1209 76.9235 54.1335 76.8009 54.1335 76.691C54.1335 76.4713 54.0534 76.3191 53.8255 76.3191C53.5302 76.3191 53.1842 76.691 53.0577 77.3715L52.8003 78.7367H51.8848V78.741Z" fill="#666464"/>
<path d="M55.5391 78.7411L55.9947 76.3488H55.5939L55.7247 75.6556H56.1255L56.1466 75.4992C56.2099 75.1315 56.3576 74.7469 56.6656 74.4891C56.9103 74.282 57.2394 74.2017 57.5389 74.2017C57.7583 74.2017 57.9229 74.2312 58.0157 74.2777L57.8596 74.9963C57.7878 74.9667 57.6866 74.9455 57.5727 74.9455C57.2773 74.9455 57.1001 75.1991 57.0453 75.5077L57.0157 75.6598H57.6233L57.4925 76.353H56.8892L56.442 78.7453H55.5391V78.7411Z" fill="#666464"/>
<path d="M60.7467 76.8565C60.7467 77.985 59.9704 78.8092 58.9072 78.8092C58.1309 78.8092 57.6035 78.2978 57.6035 77.5285C57.6035 76.4634 58.3461 75.5801 59.443 75.5801C60.27 75.5843 60.7467 76.1507 60.7467 76.8565ZM58.5444 77.5201C58.5444 77.8794 58.7216 78.1203 59.0422 78.1203C59.5274 78.1203 59.8101 77.3891 59.8101 76.865C59.8101 76.5818 59.6835 76.2817 59.3249 76.2817C58.8017 76.2775 58.5444 77.0425 58.5444 77.5201Z" fill="#666464"/>
<path d="M61.0137 78.741L61.3596 76.9066C61.4482 76.4417 61.4862 75.926 61.52 75.6597H62.3047C62.2836 75.8668 62.2752 76.074 62.2499 76.2895H62.2667C62.4904 75.8795 62.8279 75.5879 63.2498 75.5879C63.3089 75.5879 63.3637 75.5879 63.4186 75.5921L63.2456 76.4755C63.1992 76.4713 63.1485 76.4713 63.0979 76.4713C62.5199 76.4713 62.2499 76.9869 62.136 77.5913L61.9208 78.7367H61.0137V78.741Z" fill="#666464"/>
<path d="M63.3379 78.7413L63.7218 76.6618C63.7893 76.2729 63.84 75.939 63.8779 75.6601H64.65L64.591 76.1588H64.6036C64.8863 75.7615 65.2618 75.584 65.6584 75.584C66.1478 75.584 66.363 75.8968 66.3883 76.1715C66.6668 75.7742 67.0465 75.584 67.4557 75.584C67.924 75.584 68.2025 75.8925 68.2025 76.4166C68.2025 76.5434 68.1772 76.7886 68.1519 76.945L67.8186 78.7413H66.941L67.249 77.0506C67.2743 76.9323 67.2912 76.8013 67.2912 76.6787C67.2912 76.4673 67.1941 76.3152 66.9916 76.3152C66.6879 76.3152 66.3883 76.7167 66.2659 77.3423L66.0086 78.7413H65.1352L65.4559 77.0464C65.477 76.9196 65.4938 76.8013 65.4938 76.6956C65.4938 76.48 65.4263 76.3194 65.2069 76.3194C64.8947 76.3194 64.5699 76.7463 64.4644 77.3549L64.2112 78.7413H63.3379Z" fill="#666464"/>
<path d="M70.5794 78.7406C70.5879 78.5589 70.6048 78.3518 70.6174 78.132H70.6048C70.3263 78.6392 69.9297 78.8125 69.5669 78.8125C69.0142 78.8125 68.6387 78.3856 68.6387 77.7389C68.6387 76.7034 69.3306 75.5918 70.841 75.5918C71.2123 75.5918 71.6005 75.6636 71.8578 75.744L71.5372 77.3543C71.4612 77.7516 71.3979 78.356 71.4106 78.7406H70.5794ZM70.8368 76.3019C70.7651 76.2892 70.6849 76.2807 70.5921 76.2807C70.0099 76.2807 69.5795 76.9993 69.5795 77.5699C69.5795 77.8742 69.6977 78.0813 69.9508 78.0813C70.2208 78.0813 70.5541 77.7727 70.6976 77.0162L70.8368 76.3019Z" fill="#666464"/>
<path d="M73.7996 74.8232L73.6435 75.6559H74.3059L74.1667 76.3491H73.5128L73.306 77.3973C73.2807 77.5156 73.2554 77.6804 73.2554 77.7861C73.2554 77.9383 73.3145 78.0439 73.517 78.0439C73.5929 78.0439 73.6857 78.0439 73.7617 78.027L73.6604 78.7413C73.5423 78.7878 73.3145 78.8132 73.1246 78.8132C72.5803 78.8132 72.3188 78.5342 72.3188 78.1454C72.3188 77.9848 72.3356 77.8115 72.3905 77.5706L72.6225 76.3491H72.2344L72.3567 75.6559H72.7575L72.8715 75.0768L73.7996 74.8232Z" fill="#666464"/>
<path d="M74.252 78.7407L74.8384 75.6595H75.7455L75.1591 78.7407H74.252ZM75.3953 75.2749C75.1422 75.2749 74.9608 75.0974 74.9608 74.8311C74.9608 74.5225 75.2055 74.3154 75.4839 74.3154C75.754 74.3154 75.9438 74.4929 75.9438 74.7635C75.9438 75.0847 75.6991 75.2749 75.408 75.2749H75.3953Z" fill="#666464"/>
<path d="M79.1582 76.8565C79.1582 77.985 78.3861 78.8092 77.3229 78.8092C76.5424 78.8092 76.0234 78.2978 76.0234 77.5285C76.0234 76.4634 76.7618 75.5801 77.8587 75.5801C78.6815 75.5843 79.1582 76.1507 79.1582 76.8565ZM76.9601 77.5201C76.9601 77.8794 77.1331 78.1203 77.4579 78.1203C77.9431 78.1203 78.2258 77.3891 78.2258 76.865C78.2258 76.5818 78.1035 76.2817 77.7448 76.2817C77.2132 76.2775 76.9601 77.0425 76.9601 77.5201Z" fill="#666464"/>
<path d="M79.4199 78.741L79.8123 76.6615C79.8925 76.2726 79.9346 75.9387 79.9811 75.6597H80.7785L80.7236 76.1712H80.7363C81.0232 75.7739 81.4029 75.5879 81.8121 75.5879C82.3184 75.5879 82.6053 75.8964 82.6053 76.4332C82.6053 76.5727 82.58 76.8009 82.5547 76.9489L82.2129 78.7367H81.3016L81.6307 77.0292C81.6476 76.9235 81.6602 76.8009 81.6602 76.691C81.6602 76.4713 81.5843 76.3191 81.3522 76.3191C81.0569 76.3191 80.7109 76.691 80.5844 77.3715L80.327 78.7367H79.4199V78.741Z" fill="#666464"/>
<path d="M84.3412 77.7552C84.5901 77.9074 84.9487 78.0257 85.3411 78.0257C85.6955 78.0257 86.0162 77.8609 86.0162 77.5354C86.0162 77.2903 85.8348 77.1381 85.4424 76.931C84.9952 76.6901 84.5648 76.3562 84.5648 75.811C84.5648 74.9445 85.3116 74.4331 86.2314 74.4331C86.7461 74.4331 87.0499 74.5472 87.2313 74.6402L86.9486 75.3968C86.8094 75.3207 86.5098 75.2066 86.1596 75.215C85.7335 75.215 85.5141 75.4221 85.5141 75.6588C85.5141 75.904 85.7757 76.0604 86.1301 76.2632C86.6448 76.5295 86.9697 76.8761 86.9697 77.3833C86.9697 78.3301 86.1892 78.8161 85.2483 78.8161C84.6534 78.8119 84.2315 78.6597 84.0332 78.516L84.3412 77.7552Z" fill="#666464"/>
<path d="M89.9454 78.5677C89.5867 78.7494 89.1395 78.8128 88.7936 78.8128C87.9202 78.8128 87.4688 78.3183 87.4688 77.5068C87.4688 76.5642 88.148 75.5879 89.2577 75.5879C89.8821 75.5879 90.3293 75.9387 90.3293 76.5177C90.3293 77.2997 89.5657 77.5829 88.3295 77.549C88.3337 77.6378 88.3674 77.7773 88.4307 77.8618C88.5488 78.0182 88.7598 78.1027 89.0214 78.1027C89.3547 78.1027 89.6374 78.0267 89.8821 77.9083L89.9454 78.5677ZM89.148 76.2515C88.7261 76.2515 88.4813 76.6065 88.4181 76.8897C89.1269 76.8939 89.4813 76.8009 89.4813 76.5093C89.477 76.3571 89.3547 76.2515 89.148 76.2515Z" fill="#666464"/>
<path d="M92.8151 78.6395C92.621 78.7367 92.3046 78.8044 91.9417 78.8044C91.1823 78.8044 90.6465 78.3394 90.6465 77.5448C90.6465 76.4459 91.4861 75.5879 92.6548 75.5879C92.9164 75.5879 93.1442 75.6386 93.2834 75.6893L93.0556 76.391C92.9501 76.3487 92.8235 76.3191 92.6421 76.3191C92.0008 76.3191 91.5958 76.8643 91.5958 77.4434C91.5958 77.866 91.8658 78.0816 92.1991 78.0816C92.4649 78.0816 92.6548 78.0182 92.8109 77.9548L92.8151 78.6395Z" fill="#666464"/>
<path d="M96.6126 75.6605L96.2244 77.74C96.1485 78.133 96.0937 78.4669 96.0599 78.7417H95.2583L95.3173 78.2429L95.3047 78.2345C94.9883 78.636 94.6212 78.8093 94.2499 78.8093C93.7521 78.8093 93.4609 78.5303 93.4609 77.9471C93.4609 77.7822 93.4778 77.592 93.52 77.3765L93.8491 75.6562H94.752L94.4398 77.3088C94.4145 77.4526 94.3976 77.6047 94.3976 77.7146C94.3976 77.9132 94.4777 78.0696 94.7056 78.0696C95.0136 78.0696 95.3258 77.6935 95.4439 77.0848L95.7139 75.6562H96.6126V75.6605Z" fill="#666464"/>
<path d="M96.7988 78.741L97.1448 76.9066C97.2334 76.4417 97.2714 75.926 97.3051 75.6597H98.0899C98.073 75.8668 98.0603 76.074 98.035 76.2895H98.0561C98.2755 75.8795 98.6173 75.5879 99.035 75.5879C99.0898 75.5879 99.1489 75.5879 99.2037 75.5921L99.0265 76.4755C98.9843 76.4713 98.9337 76.4713 98.8831 76.4713C98.305 76.4713 98.035 76.9869 97.9211 77.5913L97.7059 78.7367H96.7988V78.741Z" fill="#666464"/>
<path d="M99.125 78.7407L99.7114 75.6595H100.619L100.032 78.7407H99.125ZM100.268 75.2749C100.019 75.2749 99.838 75.0974 99.838 74.8311C99.838 74.5225 100.083 74.3154 100.357 74.3154C100.627 74.3154 100.817 74.4929 100.817 74.7635C100.817 75.0847 100.572 75.2749 100.285 75.2749H100.268Z" fill="#666464"/>
<path d="M102.529 74.8232L102.369 75.6559H103.031L102.892 76.3491H102.238L102.031 77.3973C102.006 77.5156 101.981 77.6804 101.981 77.7861C101.981 77.9383 102.04 78.0439 102.246 78.0439C102.318 78.0439 102.415 78.0439 102.487 78.027L102.386 78.7413C102.268 78.7878 102.04 78.8132 101.85 78.8132C101.301 78.8132 101.044 78.5342 101.044 78.1454C101.044 77.9848 101.061 77.8115 101.111 77.5706L101.344 76.3491H100.951L101.078 75.6559H101.474L101.584 75.0768L102.529 74.8232Z" fill="#666464"/>
<path d="M104.179 75.6602L104.369 77.0042C104.411 77.3255 104.445 77.5452 104.47 77.7397H104.483C104.55 77.5537 104.622 77.355 104.753 77.0211L105.314 75.6602H106.267L105.166 77.8791C104.761 78.6991 104.394 79.2528 103.985 79.6374C103.626 79.9756 103.2 80.1362 102.997 80.1658L102.795 79.3838C102.943 79.3416 103.141 79.2655 103.318 79.1429C103.525 78.9992 103.702 78.8132 103.82 78.6104C103.845 78.5596 103.845 78.5216 103.833 78.4582L103.234 75.6602H104.179Z" fill="#666464"/>
<path d="M60.8492 84.2224L61.1066 82.4683C61.1741 82.0076 61.267 81.4243 61.3894 80.8115H61.3683C61.1362 81.3609 60.8703 81.9442 60.6382 82.4134L59.7689 84.1505H59.0641L58.9164 82.4303C58.8785 81.9654 58.8489 81.3821 58.8194 80.8115H58.8067C58.6843 81.3736 58.562 82.0076 58.4565 82.4683L58.0345 84.2224H57.2031L58.2666 79.9746H59.4819L59.6127 81.5892C59.6381 81.9865 59.6803 82.4725 59.6887 82.9417H59.714C59.8786 82.4683 60.1065 81.9738 60.2879 81.5892L61.0771 79.9746H62.3009L61.727 84.2224H60.8492Z" fill="#666464"/>
<path d="M64.447 84.2239C64.4554 84.0421 64.4723 83.835 64.4849 83.611H64.4723C64.1896 84.1224 63.7972 84.2915 63.4344 84.2915C62.8817 84.2915 62.502 83.8604 62.502 83.2179C62.502 82.1782 63.1939 81.0708 64.7043 81.0708C65.0756 81.0708 65.468 81.1384 65.7253 81.223L65.4047 82.8333C65.3287 83.2306 65.2655 83.835 65.2781 84.2196H64.447V84.2239ZM64.7043 81.7851C64.6368 81.7724 64.5524 81.7597 64.4596 81.7597C63.8732 81.7597 63.4512 82.4783 63.4512 83.0531C63.4512 83.3532 63.5694 83.5645 63.8183 83.5645C64.0883 83.5645 64.4259 83.256 64.5651 82.4994L64.7043 81.7851Z" fill="#666464"/>
<path d="M65.9336 84.2216L66.326 82.1421C66.4061 81.749 66.4483 81.4193 66.4947 81.1404H67.2921L67.2373 81.6518H67.2499C67.5368 81.2545 67.9166 81.0728 68.3258 81.0728C68.8321 81.0728 69.119 81.3813 69.119 81.9181C69.119 82.0533 69.0937 82.2816 69.0684 82.4337L68.7266 84.2258H67.8153L68.1402 82.5183C68.1613 82.4126 68.1697 82.2943 68.1697 82.1801C68.1697 81.9604 68.0938 81.8082 67.8617 81.8082C67.5664 81.8082 67.2204 82.1801 67.0938 82.8606L66.8365 84.23H65.9336V84.2216Z" fill="#666464"/>
<path d="M71.4997 84.2239C71.5081 84.0421 71.525 83.835 71.5377 83.611H71.525C71.2423 84.1224 70.8457 84.2915 70.4871 84.2915C69.9302 84.2915 69.5547 83.8604 69.5547 83.2179C69.5547 82.1782 70.2466 81.0708 71.7571 81.0708C72.1283 81.0708 72.5207 81.1384 72.7739 81.223L72.4532 82.8333C72.3773 83.2306 72.314 83.835 72.3266 84.2196H71.4997V84.2239ZM71.7613 81.7851C71.6938 81.7724 71.6094 81.7597 71.5166 81.7597C70.9301 81.7597 70.504 82.4783 70.504 83.0531C70.504 83.3532 70.6221 83.5645 70.8753 83.5645C71.1453 83.5645 71.4786 83.256 71.622 82.4994L71.7613 81.7851Z" fill="#666464"/>
<path d="M73.1621 84.6485C73.3351 84.7499 73.7064 84.8175 73.968 84.8175C74.4236 84.8175 74.7527 84.6189 74.8877 83.9976L74.9384 83.7355H74.9257C74.6852 84.0525 74.411 84.1962 74.0439 84.1962C73.4364 84.1962 73.0651 83.6975 73.0609 83.0931C73.0524 82.0787 73.7823 81.0728 75.124 81.0728C75.5586 81.0728 75.9383 81.1531 76.2632 81.2883L75.7948 83.8285C75.6894 84.3949 75.5122 84.8979 75.1493 85.1937C74.816 85.4558 74.3688 85.5403 73.9595 85.5403C73.5461 85.5403 73.1663 85.4642 72.9512 85.3417L73.1621 84.6485ZM75.2801 81.8209C75.2126 81.7913 75.0776 81.7659 74.951 81.7659C74.4068 81.7659 74.0102 82.3746 74.0102 82.9578C74.0102 83.2706 74.1494 83.4946 74.4236 83.4946C74.7232 83.4946 75.0143 83.1607 75.1156 82.6451L75.2801 81.8209Z" fill="#666464"/>
<path d="M79.045 84.0441C78.6863 84.2258 78.2391 84.2934 77.8931 84.2934C77.0156 84.2934 76.5684 83.7947 76.5684 82.9874C76.5684 82.0491 77.2434 81.0728 78.3572 81.0728C78.9817 81.0728 79.4289 81.4236 79.4289 81.9984C79.4289 82.7803 78.6652 83.0635 77.4291 83.0297C77.4333 83.1184 77.467 83.2579 77.5303 83.3467C77.6484 83.5031 77.8552 83.5834 78.121 83.5834C78.4543 83.5834 78.7412 83.5073 78.9859 83.389L79.045 84.0441ZM78.2433 81.7321C77.8172 81.7321 77.5767 82.0829 77.5134 82.3661C78.2265 82.3746 78.5766 82.2773 78.5766 81.9899C78.5766 81.842 78.4543 81.7321 78.2433 81.7321Z" fill="#666464"/>
<path d="M79.6191 84.2225L80.0031 82.1431C80.0706 81.75 80.1212 81.4203 80.1634 81.1413H80.9355L80.8764 81.6359H80.8891C81.1718 81.2386 81.5473 81.061 81.9439 81.061C82.4375 81.061 82.6484 81.378 82.678 81.6485C82.9522 81.2512 83.3362 81.061 83.7412 81.061C84.2095 81.061 84.4922 81.3696 84.4922 81.8937C84.4922 82.0205 84.4669 82.2656 84.4416 82.4262L84.1082 84.2225H83.2265L83.5387 82.5319C83.5598 82.4136 83.5809 82.2783 83.5809 82.16C83.5809 81.9444 83.488 81.7965 83.2813 81.7965C82.9817 81.7965 82.678 82.198 82.5556 82.8193L82.2983 84.2183H81.4165L81.7371 82.5234C81.7582 82.3966 81.7751 82.2783 81.7751 82.1726C81.7751 81.9571 81.7076 81.7965 81.4882 81.7965C81.176 81.7965 80.8511 82.2234 80.7456 82.832L80.4925 84.2183H79.6191V84.2225Z" fill="#666464"/>
<path d="M87.4125 84.0441C87.0538 84.2258 86.6066 84.2934 86.2606 84.2934C85.3831 84.2934 84.9316 83.7947 84.9316 82.9874C84.9316 82.0491 85.6109 81.0728 86.7247 81.0728C87.345 81.0728 87.7922 81.4236 87.7922 81.9984C87.7922 82.7803 87.0327 83.0635 85.7923 83.0297C85.7965 83.1184 85.8303 83.2579 85.8936 83.3467C86.0117 83.5031 86.2227 83.5834 86.4885 83.5834C86.8218 83.5834 87.1045 83.5073 87.3492 83.389L87.4125 84.0441ZM86.6151 81.7321C86.1974 81.7321 85.9484 82.0829 85.8852 82.3661C86.594 82.3746 86.9484 82.2773 86.9484 81.9899C86.9484 81.842 86.8218 81.7321 86.6151 81.7321Z" fill="#666464"/>
<path d="M87.9824 84.2216L88.3748 82.1421C88.4507 81.749 88.5014 81.4193 88.5436 81.1404H89.341L89.2861 81.6518H89.2988C89.5899 81.2545 89.9654 81.0728 90.3746 81.0728C90.8767 81.0728 91.1678 81.3813 91.1678 81.9181C91.1678 82.0533 91.1425 82.2816 91.1172 82.4337L90.7754 84.2258H89.8641L90.189 82.5183C90.2059 82.4126 90.2185 82.2943 90.2185 82.1801C90.2185 81.9604 90.1426 81.8082 89.9105 81.8082C89.6152 81.8082 89.2692 82.1801 89.1427 82.8606L88.8853 84.23H87.9824V84.2216Z" fill="#666464"/>
<path d="M93.2622 80.3042L93.1061 81.1368H93.7685L93.6293 81.83H92.9753L92.7686 82.8782C92.7433 83.0008 92.718 83.1614 92.718 83.2671C92.718 83.4192 92.7813 83.5249 92.9838 83.5249C93.0597 83.5249 93.1525 83.5249 93.2285 83.5122L93.1272 84.2265C93.0091 84.273 92.7813 84.2983 92.5914 84.2983C92.0429 84.2983 91.7856 84.0194 91.7856 83.6305C91.7856 83.4657 91.8067 83.2966 91.8573 83.06L92.0893 81.8342H91.7012L91.8235 81.1411H92.2201L92.334 80.562L93.2622 80.3042Z" fill="#666464"/>
<path d="M66.0596 88.7194C66.3128 88.8716 66.6672 88.9899 67.0596 88.9899C67.4097 88.9899 67.7304 88.8293 67.7304 88.4996C67.7304 88.2545 67.549 88.1023 67.1566 87.8952C66.7094 87.6585 66.2832 87.3246 66.2832 86.771C66.2832 85.9087 67.0258 85.3931 67.9498 85.3931C68.4645 85.3931 68.7683 85.5072 68.9497 85.6002L68.667 86.3567C68.5278 86.2807 68.2282 86.1708 67.8823 86.175C67.4519 86.175 67.2325 86.3821 67.2325 86.6146C67.2325 86.8639 67.4899 87.0203 67.8485 87.2232C68.3633 87.4895 68.6924 87.8361 68.6924 88.3475C68.6924 89.2942 67.9118 89.7761 66.971 89.7761C66.3761 89.7719 65.9584 89.6197 65.7559 89.476L66.0596 88.7194Z" fill="#666464"/>
<path d="M70.0486 86.6221L70.2384 87.9661C70.2806 88.2874 70.3144 88.5072 70.3397 88.7016H70.3523C70.424 88.5114 70.4916 88.317 70.6223 87.983L71.1835 86.6221H72.1328L71.0316 88.8411C70.6223 89.661 70.2553 90.2147 69.8503 90.5993C69.4916 90.9417 69.0613 91.0981 68.8588 91.1319L68.6562 90.35C68.7997 90.3077 69.0022 90.2316 69.1794 90.109C69.3862 89.9653 69.5634 89.7794 69.6857 89.5723C69.711 89.5215 69.711 89.4877 69.6984 89.4243L69.095 86.6263H70.0486V86.6221Z" fill="#666464"/>
<path d="M72.1156 88.8933C72.2928 88.9821 72.6176 89.1089 72.9172 89.1089C73.1746 89.1089 73.3053 88.9821 73.3053 88.8341C73.3053 88.682 73.2041 88.5721 72.9214 88.4368C72.567 88.2593 72.2759 88.0015 72.2759 87.6169C72.2759 86.9744 72.8328 86.5518 73.626 86.5518C73.9846 86.5518 74.2673 86.6278 74.4192 86.7081L74.1998 87.3506C74.0732 87.2956 73.8496 87.2196 73.588 87.2196C73.3433 87.2196 73.1872 87.321 73.1872 87.4943C73.1872 87.6211 73.3096 87.7268 73.5585 87.8451C73.896 88.0184 74.2504 88.2635 74.2504 88.6904C74.2504 89.3963 73.6513 89.7809 72.837 89.7767C72.4489 89.7682 72.0818 89.671 71.9004 89.5358L72.1156 88.8933Z" fill="#666464"/>
<path d="M76.3569 85.7871L76.1966 86.6155H76.8548L76.7156 87.3087H76.0616L75.8549 88.3527C75.8295 88.4752 75.8085 88.6358 75.8085 88.7457C75.8085 88.8937 75.8675 89.0036 76.07 89.0036C76.146 89.0036 76.243 89.0036 76.3147 88.9909L76.2135 89.7052C76.0953 89.7475 75.8675 89.7728 75.6777 89.7728C75.1292 89.7728 74.8718 89.4938 74.8718 89.105C74.8718 88.9402 74.8929 88.7711 74.9435 88.5302L75.1756 87.3087H74.7832L74.9098 86.6155H75.3064L75.4203 86.0365L76.3569 85.7871Z" fill="#666464"/>
<path d="M79.348 89.5273C78.9852 89.7133 78.5422 89.7724 78.1962 89.7724C77.3228 89.7724 76.8672 89.2737 76.8672 88.4706C76.8672 87.5323 77.5465 86.5518 78.6603 86.5518C79.2805 86.5518 79.7277 86.9068 79.7277 87.4774C79.7277 88.2593 78.9683 88.5425 77.7279 88.5129C77.7321 88.6017 77.7616 88.7412 77.8291 88.8299C77.9473 88.9863 78.1582 89.0666 78.4198 89.0666C78.7489 89.0666 79.0358 88.9905 79.2805 88.8722L79.348 89.5273ZM78.5506 87.2153C78.1245 87.2153 77.884 87.5661 77.8207 87.8536C78.5295 87.862 78.8839 87.7648 78.8839 87.4774C78.8839 87.3252 78.7531 87.2153 78.5506 87.2153Z" fill="#666464"/>
<path d="M79.9238 89.7051L80.3078 87.6256C80.3795 87.2368 80.4259 86.9029 80.4639 86.6239H81.236L81.1811 87.1227H81.1896C81.4722 86.7254 81.852 86.5479 82.2443 86.5479C82.738 86.5479 82.9489 86.8648 82.9742 87.1353C83.2527 86.738 83.6324 86.5479 84.0374 86.5479C84.51 86.5479 84.7842 86.8564 84.7842 87.3763C84.7842 87.5031 84.7589 87.7482 84.7378 87.9088L84.4045 89.7051H83.5227L83.8307 88.0145C83.856 87.8919 83.8729 87.7609 83.8729 87.6425C83.8729 87.427 83.7801 87.2791 83.5733 87.2791C83.2696 87.2791 82.9658 87.6806 82.8519 88.3061L82.5945 89.7051H81.7212L82.0418 88.0103C82.0587 87.8835 82.0798 87.7609 82.0798 87.6552C82.0798 87.4439 82.0123 87.2748 81.7887 87.2748C81.4807 87.2748 81.1516 87.7017 81.0461 88.3146L80.793 89.7009H79.9238V89.7051Z" fill="#666464"/>
<path d="M89.981 15.499H87.1289V17.8744C87.1289 18.221 87.3188 18.3943 87.6943 18.3943H90.5084V16.0147C90.5253 15.6723 90.3481 15.499 89.981 15.499ZM89.3988 17.7011H88.3693C88.2596 17.7011 88.2048 17.6419 88.2048 17.5363V16.1964H89.268C89.3608 16.1964 89.3988 16.2429 89.3988 16.3401V17.7011Z" fill="#666464"/>
<path d="M89.7107 18.79V19.4071H87.9851V20.1003H89.5926C89.3521 20.6244 88.753 20.9541 87.791 21.0893L88.0695 21.7445C88.5673 21.6937 89.0272 21.5754 89.428 21.3852C89.8499 21.1865 90.1368 20.9456 90.2887 20.6624C90.4701 20.9372 90.7697 21.1781 91.2 21.381C91.5966 21.5712 92.0059 21.6853 92.4236 21.7275L92.7105 21.0809C91.7949 20.9456 91.2043 20.6202 90.93 20.1045H92.5291V19.4114H90.795V18.7943H89.7107V18.79Z" fill="#666464"/>
<path d="M92.4252 15.4087H91.3535V18.8957H92.4252V15.4087Z" fill="#666464"/>
<path d="M64.2136 21.4154C64.5342 21.1449 64.703 20.794 64.703 20.3545C64.703 19.9107 64.5342 19.5556 64.2136 19.2894C63.876 19.0062 63.4119 18.8667 62.8297 18.8667C62.2475 18.8667 61.7876 19.0062 61.45 19.2894C61.1252 19.5556 60.9648 19.9107 60.9648 20.3545C60.9648 20.794 61.1294 21.1491 61.4585 21.4238C61.7918 21.6985 62.2475 21.8338 62.8297 21.8338C63.4119 21.838 63.876 21.6985 64.2136 21.4154ZM62.007 20.3545C62.007 20.1305 62.0829 19.9487 62.2306 19.8092C62.3782 19.6698 62.585 19.6021 62.8255 19.6021C63.0744 19.6021 63.2769 19.674 63.4288 19.8092C63.5807 19.9487 63.6566 20.1305 63.6566 20.3545C63.6566 20.5743 63.5807 20.7518 63.4288 20.8913C63.2769 21.0307 63.0744 21.0984 62.8255 21.0984C62.5808 21.0984 62.3782 21.0307 62.2306 20.8913C62.0829 20.7518 62.007 20.5743 62.007 20.3545Z" fill="#666464"/>
<path d="M63.6661 16.6478H62.5059V17.324H63.6661V18.8414H64.7293V15.4263H63.6661V16.6478Z" fill="#666464"/>
<path d="M59.1465 18.2454L59.581 18.8709C59.9439 18.7357 60.2688 18.5412 60.5514 18.2876C60.8383 18.034 61.0198 17.7804 61.1084 17.5184C61.2391 17.7762 61.4417 18.0129 61.7159 18.2285C61.9859 18.4482 62.277 18.6004 62.585 18.6934L62.9901 18.0848C62.0872 17.7086 61.6357 17.1126 61.6357 16.2758V16.2124H62.8044V15.5107H59.3701V16.2124H60.5388V16.2884C60.5346 17.176 60.0789 17.8269 59.1465 18.2454Z" fill="#666464"/>
<path d="M65.7461 19.7507V20.4481H71.8187V19.7507H69.312V18.7786H70.4767C70.8776 18.7786 71.0675 18.5884 71.0675 18.2038V15.5283H69.9998V16.4075H67.5565V15.5283H66.4846V18.2038C66.4846 18.5842 66.6829 18.7786 67.0838 18.7786H68.2401V19.7507H65.7461ZM67.7675 18.077C67.6282 18.077 67.5607 18.0136 67.5607 17.8868V17.1006H70.0041V17.8868C70.0041 18.0136 69.9365 18.077 69.7973 18.077H67.7675Z" fill="#666464"/>
<path d="M72.3926 19.7507V20.4481H78.4651V19.7507H75.9627V18.7786H77.1232C77.5199 18.7786 77.7224 18.5884 77.7224 18.2038V15.5283H76.6506V16.4075H74.203V15.5283H73.1353V18.2038C73.1353 18.5842 73.3294 18.7786 73.7303 18.7786H74.8824V19.7507H72.3926ZM74.414 18.077C74.2789 18.077 74.2072 18.0136 74.2072 17.8868V17.1006H76.6548V17.8868C76.6548 18.0136 76.583 18.077 76.448 18.077H74.414Z" fill="#666464"/>
<path d="M79.0391 19.7511V20.4527H85.1116V19.7469H82.6092V19.2777C83.0481 19.2058 83.3941 19.0452 83.6304 18.8001C83.871 18.5549 83.9933 18.2506 83.9933 17.8871C83.9933 17.5701 83.9005 17.2996 83.7148 17.0672H84.6474V16.3613H79.4906V17.0672H80.4359C80.2586 17.2996 80.1658 17.5701 80.1658 17.8871C80.1658 18.2506 80.2882 18.5549 80.5245 18.8001C80.7608 19.0452 81.1026 19.2058 81.5457 19.2777V19.7469H79.0391V19.7511ZM81.4529 18.4239C81.2968 18.2844 81.2208 18.1027 81.2208 17.8871C81.2208 17.6674 81.301 17.4898 81.4529 17.3461C81.6133 17.2024 81.8158 17.1306 82.0732 17.1306C82.3264 17.1306 82.529 17.2024 82.6851 17.3461C82.8413 17.4898 82.9215 17.6674 82.9215 17.8871C82.9215 18.1069 82.8455 18.2844 82.6851 18.4281C82.529 18.5719 82.3264 18.6437 82.0732 18.6437C81.8158 18.6437 81.6133 18.5719 81.4529 18.4239Z" fill="#666464"/>
<path d="M83.3383 15.2617H80.8828V15.9633H83.3383V15.2617Z" fill="#666464"/>
<path d="M38.9531 29.8565V23.6011H38.0038V26.0314H37.3752V23.6011H36.4512V29.7804H37.3752V26.733H38.0038V29.8565H38.9531Z" fill="#666464"/>
<path d="M33.2188 27.8519L33.7714 28.414C34.5731 27.835 35.1469 27.2137 35.5055 26.5459C35.8641 25.8781 36.0413 25.1004 36.0413 24.1959C36.0413 24.0141 36.0033 23.8916 35.9316 23.8197C35.8641 23.7521 35.7333 23.7183 35.5435 23.7183H33.3917V24.4199H34.8051C34.9317 24.4199 34.995 24.4833 34.995 24.6016C34.995 25.8316 34.4043 26.9136 33.2188 27.8519Z" fill="#666464"/>
<path d="M45.4938 23.6011H44.418V27.8742H45.4938V23.6011Z" fill="#666464"/>
<path d="M43.2121 26.5758C43.5454 26.2588 43.71 25.8361 43.71 25.312C43.71 24.7921 43.5454 24.3695 43.2121 24.0567C42.883 23.7397 42.4358 23.5791 41.8747 23.5791C41.3178 23.5791 40.8705 23.7355 40.533 24.0567C40.1997 24.3695 40.0352 24.7921 40.0352 25.312C40.0352 25.8361 40.2039 26.2588 40.533 26.5758C40.8705 26.8928 41.3178 27.0492 41.8747 27.0492C42.4358 27.0492 42.883 26.8928 43.2121 26.5758ZM41.0773 25.312C41.0773 25.0415 41.149 24.8133 41.2967 24.6358C41.4443 24.4625 41.6384 24.3695 41.8747 24.3695C42.1152 24.3695 42.3092 24.4625 42.4569 24.6358C42.6088 24.8175 42.6763 25.0415 42.6763 25.312C42.6763 25.5868 42.6088 25.815 42.4569 25.9967C42.3092 26.1743 42.1152 26.263 41.8747 26.263C41.6342 26.263 41.4401 26.1743 41.2967 25.9967C41.1448 25.815 41.0773 25.5868 41.0773 25.312Z" fill="#666464"/>
<path d="M41.6326 29.7535H45.4931V29.0434H42.4047C42.2739 29.0434 42.2064 28.9885 42.2064 28.8744V27.5684H41.1348V29.2844C41.1348 29.5971 41.2993 29.7535 41.6326 29.7535Z" fill="#666464"/>
<path d="M48.714 27.4267C48.3892 27.6929 48.2246 28.048 48.2246 28.4875C48.2246 28.9271 48.3934 29.2864 48.7225 29.5611C49.0516 29.8358 49.5114 29.9753 50.0937 29.9753C50.6759 29.9753 51.1358 29.8358 51.4733 29.5569C51.794 29.2864 51.9585 28.9313 51.9585 28.4918C51.9585 28.048 51.794 27.6929 51.4733 27.4309C51.1358 27.1477 50.6759 27.004 50.0937 27.004C49.5114 26.9998 49.0516 27.1435 48.714 27.4267ZM50.9248 28.4918C50.9248 28.7158 50.8489 28.8933 50.697 29.0328C50.5409 29.168 50.3426 29.2399 50.0937 29.2399C49.8447 29.2399 49.6464 29.168 49.4903 29.0328C49.3384 28.8933 49.2667 28.7158 49.2667 28.4918C49.2667 28.272 49.3384 28.0902 49.4903 27.9508C49.6422 27.8113 49.8405 27.7394 50.0937 27.7394C50.3426 27.7394 50.5409 27.8113 50.697 27.9508C50.8489 28.0902 50.9248 28.272 50.9248 28.4918Z" fill="#666464"/>
<path d="M51.9975 23.5713H50.9301V24.7843H49.7656V25.4648H50.9301V26.9822H51.9975V23.5713Z" fill="#666464"/>
<path d="M46.4141 26.3822L46.8486 27.0078C47.2115 26.8683 47.5363 26.6781 47.819 26.4245C48.0975 26.1751 48.2831 25.9215 48.3802 25.6553C48.5067 25.9131 48.7135 26.1498 48.9793 26.3696C49.2535 26.5851 49.5404 26.7373 49.8484 26.8345L50.2534 26.2216C49.3463 25.8497 48.8949 25.2495 48.8949 24.4169V24.3492H50.0594V23.6519H46.6335V24.3492H47.8021V24.4296C47.8021 25.3171 47.3423 25.9638 46.4141 26.3822Z" fill="#666464"/>
<path d="M53.0156 27.8876V28.5892H59.084V27.8876H56.5815V26.9155H57.742C58.1429 26.9155 58.3413 26.7253 58.3413 26.3449V23.6694H57.2694V24.5486H54.8302V23.6694H53.7541V26.3449C53.7541 26.7253 53.9567 26.9155 54.3534 26.9155H55.5096V27.8876H53.0156ZM55.0286 26.2181C54.8935 26.2181 54.826 26.1547 54.826 26.0237V25.2375H57.2694V26.0237C57.2694 26.1505 57.1976 26.2181 57.0668 26.2181H55.0286Z" fill="#666464"/>
<path d="M63.9539 24.5486H61.5063V23.6694H60.4387V26.3449C60.4387 26.7253 60.6328 26.9155 61.0337 26.9155H62.19V27.8876H59.6875V28.5892H65.7601V27.8876H63.2576V26.9155H64.4181C64.819 26.9155 65.0131 26.7253 65.0131 26.3449V23.6694H63.9497V24.5486H63.9539ZM63.9539 26.0237C63.9539 26.1505 63.8822 26.2181 63.7429 26.2181H61.7173C61.5781 26.2181 61.5105 26.1547 61.5105 26.0237V25.2375H63.9581V26.0237H63.9539Z" fill="#666464"/>
<path d="M66.7852 25.2063H67.722C67.5406 25.4388 67.4604 25.7093 67.4604 26.0263C67.4604 26.3898 67.5828 26.6941 67.8233 26.9392C68.0596 27.1844 68.3972 27.345 68.8446 27.4211L68.8319 27.886H66.3379V28.5919H72.4105V27.886H69.908V27.4211C70.3469 27.345 70.6887 27.1844 70.9292 26.9392C71.1698 26.6941 71.2879 26.3856 71.2879 26.0263C71.2879 25.7093 71.1951 25.4388 71.0136 25.2063H71.9463V24.5005H66.7894V25.2063H66.7852ZM68.7559 25.4811C68.9079 25.3374 69.1104 25.2655 69.3763 25.2655C69.621 25.2655 69.8236 25.3374 69.9882 25.4811C70.1401 25.6248 70.2203 25.8065 70.2203 26.0221C70.2203 26.2419 70.1401 26.4236 69.9882 26.5631C69.8236 26.7068 69.621 26.7786 69.3763 26.7786C69.1104 26.7786 68.9079 26.7068 68.7559 26.5631C68.5956 26.4194 68.5238 26.2376 68.5238 26.0221C68.5238 25.8065 68.5956 25.6248 68.7559 25.4811Z" fill="#666464"/>
<path d="M76.626 28.913V27.7549H75.5586V29.2976C75.5586 29.6146 75.7189 29.7794 76.0438 29.7794H80.1785V29.0778H76.8075C76.6893 29.0778 76.626 29.0229 76.626 28.913Z" fill="#666464"/>
<path d="M78.2752 25.9638V24.1675C78.3005 23.8251 78.1402 23.6519 77.7858 23.6519H74.959V24.3492H76.9926C77.1276 24.3492 77.1951 24.4296 77.1951 24.5902V25.9596H78.2752V25.9638Z" fill="#666464"/>
<path d="M92.413 29.7168V23.5713H91.5102V25.6635H90.5566V26.3609H91.5102V29.7168H92.413Z" fill="#666464"/>
<path d="M88.7455 26.7242C88.5683 27.1807 88.2519 27.5949 87.8047 27.9669L88.3574 28.491C88.6274 28.3092 88.8763 28.0725 89.0957 27.7767C89.3235 27.4808 89.4628 27.1934 89.5261 26.9144C89.6062 27.1976 89.7581 27.485 89.9817 27.7767C90.1927 28.0725 90.4205 28.2965 90.6526 28.4529L91.1968 27.9288C90.4078 27.3033 90.0155 26.3946 90.0155 25.19V25.1393H91.0323V24.4165H87.9945V25.1393H89.0113V25.19C89.0029 25.8028 88.9185 26.3143 88.7455 26.7242Z" fill="#666464"/>
<path d="M93.7244 23.5713H92.7793V29.7929H93.7244V23.5713Z" fill="#666464"/>
<path d="M100.303 23.5713H99.3457V29.7929H100.303V23.5713Z" fill="#666464"/>
<path d="M94.5605 27.8486L95.1048 28.4108C95.6069 28.0388 96.0077 27.6331 96.341 27.2062H98.0497V29.7126H98.9653V23.5713H98.0497V24.7125H97.3367C97.3536 24.5307 97.3662 24.3405 97.3662 24.1461C97.3662 23.9644 97.3283 23.8376 97.2565 23.7699C97.189 23.7023 97.0583 23.6643 96.8684 23.6643H94.7335V24.3617H96.1469C96.2777 24.3617 96.3326 24.4208 96.3326 24.5434C96.3326 25.8199 95.7461 26.9188 94.5605 27.8486ZM97.2228 25.4141H98.0497V26.5088H96.7925C96.9823 26.158 97.1384 25.7945 97.2228 25.4141Z" fill="#666464"/>
<path d="M104.536 23.5459C103.98 23.5459 103.537 23.7065 103.203 24.0193C102.87 24.3363 102.701 24.7505 102.701 25.2704C102.701 25.7945 102.866 26.2129 103.203 26.5299C103.532 26.8469 103.98 26.999 104.536 26.999C105.098 26.999 105.541 26.8469 105.87 26.5299C106.199 26.2129 106.368 25.7945 106.368 25.2704C106.368 24.7505 106.199 24.3363 105.87 24.0193C105.536 23.7065 105.093 23.5459 104.536 23.5459ZM105.119 25.9508C104.975 26.1284 104.781 26.2171 104.536 26.2171C104.296 26.2171 104.106 26.1284 103.963 25.9508C103.815 25.7733 103.743 25.5493 103.743 25.2746C103.743 25.0041 103.815 24.7801 103.963 24.6026C104.11 24.425 104.296 24.3363 104.536 24.3363C104.781 24.3363 104.975 24.425 105.119 24.6026C105.266 24.7801 105.338 25.0041 105.338 25.2746C105.338 25.5451 105.262 25.7733 105.119 25.9508Z" fill="#666464"/>
<path d="M104.87 28.8171V27.5195H103.803V29.2313C103.803 29.5356 103.963 29.692 104.292 29.692H108.136V28.9862H105.064C104.933 28.9862 104.87 28.9312 104.87 28.8171Z" fill="#666464"/>
<path d="M108.136 23.5713H107.072V27.8233H108.136V23.5713Z" fill="#666464"/>
<path d="M109.66 25.3553L109.863 26.0146C110.39 25.9597 110.871 25.8413 111.314 25.6554C111.758 25.4736 112.053 25.2538 112.213 25.0045C112.391 25.2581 112.711 25.4821 113.175 25.6849C113.627 25.8751 114.074 25.985 114.538 26.0146L114.724 25.3637C113.61 25.2031 112.969 24.8396 112.8 24.2648H114.492V23.5928H109.892V24.2648H111.589C111.445 24.8312 110.8 25.1947 109.66 25.3553Z" fill="#666464"/>
<path d="M110.756 27.6743C110.436 27.9195 110.275 28.2449 110.275 28.6676C110.275 29.0818 110.436 29.4157 110.756 29.6609C111.094 29.9102 111.575 30.0413 112.195 30.0413C112.811 30.0413 113.284 29.9145 113.625 29.6609C113.946 29.4157 114.106 29.086 114.106 28.6676C114.106 28.2492 113.946 27.9195 113.625 27.6743C113.284 27.4207 112.811 27.2939 112.195 27.2939C111.575 27.2939 111.094 27.4207 110.756 27.6743ZM113.09 28.6634C113.09 28.862 113.005 29.0311 112.853 29.1706C112.693 29.3058 112.474 29.3734 112.195 29.3734C111.912 29.3734 111.693 29.3058 111.537 29.1706C111.381 29.0311 111.296 28.862 111.296 28.6634C111.296 28.4647 111.377 28.2957 111.537 28.1562C111.697 28.0209 111.912 27.9533 112.195 27.9533C112.474 27.9533 112.689 28.0209 112.853 28.1562C113.005 28.2957 113.09 28.4647 113.09 28.6634Z" fill="#666464"/>
<path d="M115.227 26.3569H109.154V27.0416H115.227V26.3569Z" fill="#666464"/>
<path d="M70.641 23.4028H68.1855V24.1045H70.641V23.4028Z" fill="#666464"/>
<path d="M76.5158 25.2065H75.5243V26.483H74.6172V27.1804H76.115C76.6508 27.1804 78.2034 27.0663 78.5283 27.0663V26.3689C78.2287 26.3689 76.9967 26.4788 76.5116 26.4788V25.2065H76.5158Z" fill="#666464"/>
<path d="M78.8672 28.1403H79.9388V25.9636H80.8839V25.2662H79.9388V23.5713H78.8672V28.1403Z" fill="#666464"/>
<path d="M85.4315 27.5101C85.2163 27.5059 83.1532 27.6031 83.0224 27.5862C82.8536 27.5608 82.7692 27.489 82.7692 27.3749V26.2083H84.9969V24.1077C85.0222 23.8076 84.8788 23.6597 84.5834 23.6597H81.7566V24.3613H83.748C83.862 24.3613 83.9126 24.4247 83.9126 24.5473V25.5194H81.6934V27.527C81.6934 28.0004 81.8917 28.2667 82.2883 28.3216C82.4908 28.347 82.7523 28.3597 83.073 28.3597C83.2375 28.3597 85.2754 28.2456 85.4272 28.2413V27.5101H85.4315Z" fill="#666464"/>
<path d="M86.8721 23.5713H85.8047V29.7929H86.8721V23.5713Z" fill="#666464"/>
<path d="M90.2174 23.397H88.7871V24.1071H90.2174V23.397Z" fill="#666464"/>
<path d="M112.103 71.7406C101.464 87.8609 87.4667 97.895 75.5916 97.933H75.5241C63.7292 97.9288 49.7061 87.8736 38.9283 71.6899C38.4683 71.0009 38.0252 70.3162 37.5947 69.623H31.0664C32.7206 72.6704 34.5859 75.684 36.6748 78.6342C48.111 94.818 62.9991 104.873 75.5241 104.877H75.5916C88.2136 104.844 103.064 94.8053 114.361 78.6892C116.433 75.7221 118.294 72.6916 119.94 69.623H113.458C113.01 70.3331 112.567 71.039 112.103 71.7406Z" fill="url(#paint0_linear)"/>
<path d="M32.4856 18.7859C32.5278 18.6591 32.5784 18.5323 32.6206 18.4055C48.0236 16.064 63.6629 13.0419 75.4198 7.30218C87.2063 12.9785 102.867 15.9076 118.278 18.1604C118.325 18.2914 118.371 18.4182 118.417 18.545C119.713 22.1672 120.468 26.0304 120.705 30.0414H126.828C126.583 25.3161 125.705 20.7598 124.178 16.4824C123.924 15.7892 123.646 15.058 123.329 14.2508L122.671 12.6024L120.916 12.3488C104.846 10.0495 88.371 7.0993 76.7998 1.15244L75.3945 0.429688L73.9893 1.16089C62.4518 7.17538 45.998 10.2185 29.9409 12.615L28.1854 12.8771L27.544 14.5213C27.2275 15.3201 26.9532 16.0555 26.7042 16.7571C25.2314 20.9499 24.3958 25.4133 24.168 30.0414H30.2912C30.5191 26.1107 31.2365 22.3321 32.4856 18.7859Z" fill="url(#paint1_linear)"/>
<path d="M74.4964 64.0283H82.0038L84.4134 49.9917C86.0254 40.634 82.5397 35.9551 73.9562 35.9551H47.193L42.3906 64.0283H49.8727L53.696 41.8047H62.2542L58.4519 64.0283H65.9382L69.7573 41.8047H70.8081C75.8088 41.8047 77.7416 45.148 76.5895 51.8303L74.4964 64.0283Z" fill="#374E65"/>
<path d="M6.8319 35.9551L2 64.0283H8.58742L13.4109 35.9551H6.8319Z" fill="#374E65"/>
<path d="M40.4105 55.4522C40.8114 53.1106 40.4949 51.141 39.4484 49.5434C38.2921 47.7682 36.4522 46.8764 33.937 46.8764H24.5982C23.847 46.8764 23.3195 46.6397 23.003 46.1663C22.6823 45.6929 22.5895 45.1223 22.6992 44.4503C22.8131 43.7656 23.1254 43.1654 23.6276 42.6582C24.1255 42.1468 24.7374 41.8932 25.4506 41.8932H41.2967L42.3137 35.959H25.3789C22.8638 35.959 20.6989 36.8466 18.9012 38.626C17.2934 40.2194 16.289 42.1594 15.9008 44.4545C15.4999 46.7834 15.829 48.7318 16.8925 50.3084C18.0698 52.0709 19.9266 52.95 22.4629 52.95H31.8228C32.5402 52.95 33.0382 53.1909 33.3336 53.677C33.6248 54.1588 33.7134 54.7463 33.5952 55.4353C33.4728 56.1242 33.1774 56.7328 32.6921 57.2612C32.2111 57.7895 31.6287 58.0558 30.9493 58.0558H13.5629L12.5332 64.0322H30.9873C33.5108 64.0322 35.6504 63.1489 37.4185 61.3695C39.0095 59.7549 40.0096 57.7853 40.4105 55.4522Z" fill="#374E65"/>
<path d="M95.9409 42.6582C96.4431 42.1468 97.055 41.8932 97.7724 41.8932H113.614L114.64 35.959H97.6922C95.1729 35.959 93.0122 36.8466 91.2145 38.626C89.6109 40.2194 88.6065 42.1594 88.2141 44.4545C87.809 46.7834 88.1381 48.7318 89.2016 50.3084C90.3747 52.0709 92.2357 52.95 94.7677 52.95H104.132C104.849 52.95 105.347 53.1909 105.638 53.677C105.93 54.1588 106.014 54.7463 105.896 55.4353C105.778 56.1242 105.478 56.7328 104.997 57.2612C104.52 57.7895 103.938 58.0558 103.25 58.0558H87.3321L86.3066 64.0322H103.292C105.811 64.0322 107.959 63.1489 109.728 61.3695C111.314 59.7591 112.315 57.7895 112.715 55.4564C113.116 53.1149 112.796 51.1452 111.757 49.5476C110.597 47.7724 108.761 46.8806 106.238 46.8806H96.9031C96.1561 46.8806 95.6202 46.6439 95.3079 46.1705C94.9872 45.6971 94.8859 45.1265 94.9998 44.4545C95.1264 43.7698 95.4387 43.1696 95.9409 42.6582Z" fill="#374E65"/>
<path d="M141.696 35.9551H124.533L119.73 64.0283H127.217L129.103 53.0602H138.754C144.477 53.0602 147.886 49.8395 148.802 44.4929C149.73 39.1504 147.418 35.9551 141.696 35.9551ZM141.869 44.9409C141.582 46.6231 139.902 47.9883 138.117 47.9883H129.918L130.96 41.8977H139.168C140.953 41.8977 142.164 43.2629 141.869 44.9409Z" fill="#005F8B"/>
<path d="M120.312 48.8074C120.312 48.5369 119.527 48.3087 118.391 48.1988C119.113 47.3196 119.51 46.6011 119.32 46.4151C119.13 46.2249 118.413 46.6222 117.535 47.345C117.425 46.2123 117.197 45.4219 116.927 45.4219C116.661 45.4219 116.433 46.208 116.324 47.3408C115.45 46.618 114.728 46.2249 114.539 46.4151C114.349 46.6053 114.745 47.3239 115.463 48.1988C114.336 48.3087 113.547 48.5369 113.547 48.8074C113.547 49.0737 114.336 49.3061 115.463 49.416C114.741 50.2952 114.349 51.0137 114.539 51.2039C114.728 51.3941 115.446 50.9968 116.324 50.2783C116.433 51.411 116.661 52.1972 116.927 52.1972C117.197 52.1972 117.425 51.411 117.535 50.2783C118.413 51.001 119.13 51.3941 119.32 51.2081C119.51 51.0179 119.113 50.2994 118.396 49.4203C119.522 49.3019 120.312 49.0737 120.312 48.8074Z" fill="#374E65"/>
<defs>
<linearGradient id="paint0_linear" x1="31.0651" y1="87.2498" x2="119.938" y2="87.2498" gradientUnits="userSpaceOnUse">
<stop stop-color="#5FA224"/>
<stop offset="1" stop-color="#004E97"/>
</linearGradient>
<linearGradient id="paint1_linear" x1="24.1727" y1="15.2305" x2="126.831" y2="15.2305" gradientUnits="userSpaceOnUse">
<stop stop-color="#5FA224"/>
<stop offset="1" stop-color="#004E97"/>
</linearGradient>
</defs>
</svg>
