<svg width="1205" height="119" viewBox="0 0 1205 119" fill="none" xmlns="http://www.w3.org/2000/svg">
<circle opacity="0.2" cx="273" cy="65" r="2" fill="#0062DF"/>
<circle opacity="0.2" cx="308" cy="65" r="2" fill="#0062DF"/>
<circle opacity="0.2" cx="343" cy="65" r="2" fill="#0062DF"/>
<circle opacity="0.2" cx="377" cy="65" r="9" fill="#0062DF"/>
<circle cx="377" cy="65" r="4" fill="#0062DF"/>
<circle opacity="0.2" cx="447" cy="65" r="2" fill="#0062DF"/>
<circle opacity="0.2" cx="482" cy="65" r="2" fill="#0062DF"/>
<circle opacity="0.2" cx="413" cy="65" r="2" fill="#0062DF"/>
<circle opacity="0.2" cx="660" cy="65" r="2" fill="#0062DF"/>
<circle opacity="0.2" cx="695" cy="65" r="2" fill="#0062DF"/>
<circle opacity="0.2" cx="730" cy="65" r="2" fill="#0062DF"/>
<circle opacity="0.2" cx="764" cy="65" r="9" fill="#0062DF"/>
<circle cx="764" cy="65" r="4" fill="#0062DF"/>
<circle opacity="0.2" cx="834" cy="65" r="2" fill="#0062DF"/>
<circle opacity="0.2" cx="869" cy="65" r="2" fill="#0062DF"/>
<circle opacity="0.2" cx="800" cy="65" r="2" fill="#0062DF"/>
<path d="M526 19.8333C554 19.8333 568 6.28056 571 0C574.5 6.28056 587 19.8333 616 19.8333V71.4C616 79.8292 609.5 104.621 571 119C539 108.092 526 81.3167 526 73.3833V19.8333Z" fill="#0062DF"/>
<path fill-rule="evenodd" clip-rule="evenodd" d="M575.711 55L575.711 45.5C575.711 42.4624 573.378 40 570.5 40C567.622 40 565.289 42.4624 565.289 45.5L565.289 55L561.5 55L561.5 45.5C561.5 40.2533 565.529 36 570.5 36C575.471 36 579.5 40.2533 579.5 45.5L579.5 55L575.711 55Z" fill="white"/>
<path d="M558 78.8909V57H583V78.3818C582.167 80.5879 578.5 85 570.5 85C562.5 85 558.833 80.9273 558 78.8909Z" fill="white"/>
<path fill-rule="evenodd" clip-rule="evenodd" d="M571.74 68.7756C572.603 68.3816 573.203 67.5109 573.203 66.5C573.203 65.1193 572.084 64 570.703 64C569.322 64 568.203 65.1193 568.203 66.5C568.203 67.5113 568.804 68.3823 569.667 68.776C569.525 69.8767 568.99 73.9898 568.703 76H572.703L571.74 68.7756Z" fill="#0062DF"/>
<g clip-path="url(#clip0_20428_207440)">
<path d="M56.4995 55.786C55.0252 55.0688 53.033 54.5907 51.24 54.5907C47.136 54.5907 44.7454 57.061 44.7454 63.0377C44.7454 68.6557 47.0962 71.1659 51.2798 71.1659C53.4314 71.1659 55.6229 70.4886 57.137 69.7714L58.1331 72.4808C56.3401 73.5167 53.7502 74.2339 50.8814 74.2339C44.3868 74.224 41 70.0901 41 62.9978C41 56.1048 44.3469 51.5625 51.1205 51.5625C53.6307 51.5625 55.9815 52.2399 57.6948 53.236L56.4995 55.786Z" fill="#1E1E1E"/>
<path d="M79.8894 62.997C79.8894 70.169 76.2237 74.2332 70.1673 74.2332C64.1508 74.2332 60.4453 70.169 60.4453 62.997C60.4453 55.7055 64.1907 51.6016 70.1673 51.6016C76.1838 51.6016 79.8894 55.7055 79.8894 62.997ZM64.2305 62.997C64.2305 68.4159 66.3423 71.2847 70.1673 71.2847C74.0322 71.2847 76.144 68.4159 76.144 62.997C76.144 57.4985 74.0322 54.55 70.1673 54.55C66.3423 54.55 64.2305 57.4985 64.2305 62.997Z" fill="#1E1E1E"/>
<path d="M87.9774 73.7468H84.3516V42.957L87.9774 42.1602V73.7468Z" fill="#1E1E1E"/>
<path d="M106.504 52.6392V42.957L110.17 42.1602V73.7468H107.46L107.022 71.3561C105.07 73.1093 102.679 74.1054 100.527 74.1054C95.3875 74.1054 92.3594 70.0412 92.3594 63.0286C92.3594 55.9363 95.9852 51.5933 101.962 51.5933C103.595 51.6033 105.149 51.9619 106.504 52.6392ZM106.504 68.7762V55.2689C105.07 54.8307 103.755 54.5518 102.56 54.5518C98.2962 54.5518 96.1446 57.4604 96.1446 63.198C96.1446 68.3379 97.8181 71.0872 101.125 71.0872C102.878 71.0872 104.791 70.2903 106.504 68.7762Z" fill="#1E1E1E"/>
<path d="M139.978 52.0008L143.723 68.2573L147.827 51.1641L153.565 52.7578L146.632 73.7558H140.535L137.109 58.3759L133.244 73.7459H127.267L120.812 52.7877L126.51 51.2736L130.375 68.2473L134.439 51.9908H139.978V52.0008Z" fill="#1E1E1E"/>
<path d="M163.6 60.4876H166.907V59.7704C166.907 57.3798 165.553 56.2641 163.202 56.2641C161.409 56.2641 159.098 56.7821 157.225 57.6985L155.631 53.7938C157.703 52.3594 160.891 51.3633 163.72 51.3633C169.298 51.3633 172.326 54.3118 172.326 59.9298V73.7558H168.222L167.624 71.923C165.274 73.6363 163.122 74.3535 161.17 74.3535C156.906 74.3535 154.516 71.8034 154.516 67.5002C154.516 62.9181 157.703 60.4876 163.6 60.4876ZM166.907 68.1776V64.1932H164.238C161.249 64.1932 159.735 65.269 159.735 67.4206C159.735 69.0542 160.572 69.8511 162.285 69.8511C163.879 69.8511 165.911 69.0542 166.907 68.1776Z" fill="#1E1E1E"/>
<path d="M182.45 73.746H176.633V43.036L182.45 42V73.746Z" fill="#1E1E1E"/>
<path d="M192.724 73.746H186.906V43.036L192.724 42V73.746Z" fill="#1E1E1E"/>
<path d="M214.991 62.2009C214.991 63.1572 214.871 64.3127 214.752 64.7908H201.802C202.081 68.2971 203.914 69.7315 207.62 69.7315C209.094 69.7315 211.764 69.1339 213.158 68.4964L214.433 72.4808C212.64 73.4769 209.293 74.3535 206.942 74.3535C199.651 74.3535 195.945 70.4089 195.945 62.8783C195.945 55.5868 199.611 51.3633 205.867 51.3633C211.764 51.3633 214.991 55.1883 214.991 62.2009ZM201.773 60.8462H209.383C209.383 57.1407 208.347 55.7063 205.637 55.7063C203.127 55.7063 201.852 57.4196 201.773 60.8462Z" fill="#1E1E1E"/>
<path d="M216.594 52.4395L219.981 52.0013V47.7379L225.877 46.4629V52.0013H232.173V56.3841H225.877V65.389C225.877 68.7757 226.555 69.3734 228.149 69.3734C229.264 69.3734 230.659 69.0148 231.735 68.6562L233.01 72.7602C232.133 73.4375 229.105 74.3539 226.674 74.3539C222.252 74.3539 219.981 71.4453 219.981 65.8272V56.3841H216.594V52.4395Z" fill="#1E1E1E"/>
</g>
<path d="M0 46.6667C9.30339 46.6667 13.9551 42.1111 14.9519 40C16.1148 42.1111 20.2681 46.6667 29.9037 46.6667V64C29.9037 66.8333 27.744 75.1667 14.9519 80C4.31943 76.3333 0 67.3333 0 64.6667V46.6667Z" fill="#CCE0F9"/>
<path d="M5.48438 52.1667C11.3765 52.1667 14.3226 49.3194 14.9539 48C15.6904 49.3194 18.3208 52.1667 24.4234 52.1667V63C24.4234 64.7708 23.0556 69.9792 14.9539 73C8.22001 70.7083 5.48438 65.0833 5.48438 63.4167V52.1667Z" fill="#0062DF"/>
<g clip-path="url(#clip1_20428_207440)">
<path d="M945.443 53.7632V52.1299C945.443 48.8269 948.1 45.8407 952.464 45.8407C956.827 45.8407 959.484 48.8269 959.484 52.1299V53.7632C959.484 57.0662 956.827 60.0524 952.464 60.0524C948.1 60.0524 945.443 57.0662 945.443 53.7632ZM948.929 52.3859V53.495C948.929 55.2502 950.27 56.859 952.464 56.859C954.658 56.859 955.998 55.2502 955.998 53.495V52.3859C955.998 50.6308 954.658 49.0219 952.464 49.0219C950.27 49.0219 948.929 50.6308 948.929 52.3859ZM953.61 68.5842H967.651V71.741H949.892V62.6119H953.61V68.5842ZM967.212 64.1964H963.531V44.8291H967.212V64.1964Z" fill="#1E1E1E"/>
<path d="M995.294 57.5655V60.6126H970.369V57.5655H995.294ZM973.587 45.8037H992.077V48.8142H984.678V48.9605C984.678 50.1062 985.178 50.74 986.641 51.325C988.835 52.2026 990.967 52.9339 993.247 53.6652L992.101 56.5904C989.676 55.7738 987.689 55.0425 985.751 54.3112C984.081 53.6652 983.118 53.1411 982.887 52.6779H982.862C982.631 53.1411 981.607 53.7261 979.937 54.3721C978.011 55.1034 976.012 55.8347 973.587 56.6514L972.417 53.6652C974.696 52.9339 976.829 52.2026 979.023 51.325C980.485 50.74 980.985 50.094 980.985 48.9605V48.8142H973.587V45.8037ZM974.05 67.8037V66.9262C974.05 63.5012 978.084 61.868 982.826 61.868C987.567 61.868 991.601 63.5012 991.601 66.9262V67.8037C991.601 71.2286 987.567 72.8619 982.826 72.8619C978.084 72.8619 974.05 71.2165 974.05 67.8037ZM977.707 67.1577V67.5721C977.707 68.9738 980.217 69.8879 982.826 69.8879C985.434 69.8879 987.945 68.986 987.945 67.5721V67.1577C987.945 65.7561 985.434 64.8419 982.826 64.8419C980.217 64.8419 977.707 65.7561 977.707 67.1577Z" fill="#1E1E1E"/>
<path d="M1012.64 62.7704L1010.27 65.2568C1008.96 64.0258 1007.66 62.746 1006.59 61.6247C1005.48 60.479 1004.63 59.5161 1004.42 59.0164H1004.36C1004.19 59.5405 1003.13 60.7471 1002.17 61.7344C1001.08 62.8801 999.949 63.9892 998.279 65.5371L995.854 63.0263C997.487 61.5637 998.986 60.1011 1000.24 58.7238C1001.94 56.8468 1002.5 55.4208 1002.5 53.0197V46.7549H1006.27V53.0197C1006.27 55.3355 1006.59 56.6153 1008.35 58.5166C1009.59 59.9061 1011.11 61.3931 1012.64 62.7704ZM1010.03 53.0197H1015.38V44.8291H1019.1V72.0335H1015.38V56.2496H1010.03V53.0197Z" fill="#1E1E1E"/>
<path d="M918.994 58.2365L928.038 71.4852H937.594V45.8896H928.16V59.1384L919.116 45.8896H909.561V71.4852H918.994V58.2365Z" fill="#1E1E1E"/>
</g>
<path d="M1052.26 71.9798H1049V44.7027L1052.26 44V71.9798ZM1060.95 52.1767L1063.5 54.0293L1057.24 61.8866L1064.46 70.5744L1061.97 72.4908L1053.41 62.0144L1060.95 52.1767Z" fill="#1E1E1E"/>
<path d="M1066.88 66.8056C1066.88 64.8253 1067.52 63.3561 1068.87 62.334C1070.14 61.3119 1072.06 60.8008 1074.55 60.8008H1078.32V59.5871C1078.32 56.5847 1076.98 55.1154 1074.36 55.1154C1073.53 55.1154 1072.63 55.2432 1071.68 55.4987C1070.72 55.7543 1069.89 56.0098 1069.12 56.3931L1068.16 54.0295C1069.12 53.5184 1070.14 53.0713 1071.29 52.7519C1072.38 52.4324 1073.53 52.3047 1074.55 52.3047C1079.09 52.3047 1081.39 54.7322 1081.39 59.5871V71.9161H1078.96L1078.57 69.808C1077.62 70.5746 1076.59 71.2134 1075.51 71.5967C1074.42 72.0439 1073.4 72.2355 1072.38 72.2355C1070.65 72.2355 1069.31 71.7245 1068.35 70.7662C1067.4 69.8719 1066.88 68.4665 1066.88 66.8056ZM1072.95 69.6803C1073.4 69.6803 1073.85 69.6164 1074.36 69.4886C1074.87 69.3609 1075.32 69.2331 1075.83 69.0415C1076.34 68.8498 1076.79 68.5943 1077.17 68.3388C1077.62 68.0832 1078 67.7638 1078.32 67.4444V62.9089H1074.93C1073.21 62.9089 1072 63.2283 1071.16 63.8032C1070.4 64.3782 1070.01 65.3364 1070.01 66.614C1069.95 68.6582 1070.97 69.6803 1072.95 69.6803Z" fill="#1E1E1E"/>
<path d="M1090.97 71.9798H1087.71V44.7027L1090.97 44V71.9798ZM1099.66 52.1767L1102.21 54.0293L1095.95 61.8866L1103.17 70.5744L1100.68 72.4908L1092.18 62.0144L1099.66 52.1767Z" fill="#1E1E1E"/>
<path d="M1105.66 66.8052C1105.66 64.8249 1106.3 63.3557 1107.64 62.3336C1108.98 61.3115 1110.84 60.8004 1113.33 60.8004H1117.1V59.5867C1117.1 56.5843 1115.76 55.115 1113.14 55.115C1112.31 55.115 1111.41 55.2428 1110.45 55.4983C1109.49 55.7538 1108.66 56.0094 1107.9 56.3927L1106.94 54.0929C1107.9 53.5819 1108.92 53.1347 1110.07 52.8153C1111.16 52.4959 1112.31 52.3682 1113.33 52.3682C1117.86 52.3682 1120.16 54.7956 1120.16 59.6506V71.9796H1117.74L1117.35 69.8715C1116.39 70.6381 1115.37 71.2769 1114.29 71.6602C1113.2 72.1073 1112.18 72.299 1111.16 72.299C1109.43 72.299 1108.09 71.7879 1107.13 70.8297C1106.11 69.8715 1105.66 68.4661 1105.66 66.8052ZM1111.67 69.6799C1112.11 69.6799 1112.56 69.616 1113.07 69.4882C1113.58 69.3605 1114.03 69.2327 1114.54 69.0411C1115.05 68.8494 1115.5 68.5939 1115.88 68.3384C1116.33 68.0828 1116.71 67.7634 1117.03 67.444V62.9085H1113.65C1111.92 62.9085 1110.71 63.2279 1109.88 63.8028C1109.11 64.3778 1108.73 65.336 1108.73 66.6136C1108.73 68.6578 1109.69 69.6799 1111.67 69.6799Z" fill="#1E1E1E"/>
<path d="M1133.96 52.3682C1136.64 52.3682 1138.75 53.2625 1140.28 54.9873C1141.82 56.7121 1142.58 59.2034 1142.58 62.4613C1142.58 65.6554 1141.82 68.1467 1140.28 69.8076C1138.75 71.5324 1136.64 72.3629 1133.96 72.3629C1131.27 72.3629 1129.17 71.5324 1127.63 69.8076C1126.1 68.0828 1125.33 65.6554 1125.33 62.4613C1125.33 59.2034 1126.1 56.7121 1127.63 54.9873C1129.23 53.1986 1131.34 52.3682 1133.96 52.3682ZM1133.96 54.9873C1132.3 54.9873 1130.96 55.6261 1130.06 56.9037C1129.17 58.1813 1128.72 60.0339 1128.72 62.4613C1128.72 64.8888 1129.17 66.7413 1130.06 67.9551C1130.96 69.1688 1132.3 69.8076 1133.96 69.8076C1135.68 69.8076 1136.96 69.1688 1137.92 67.9551C1138.81 66.7413 1139.26 64.8888 1139.26 62.4613C1139.26 60.0339 1138.81 58.1813 1137.92 56.9037C1137.02 55.6261 1135.68 54.9873 1133.96 54.9873Z" fill="#1E1E1E"/>
<path d="M1152.55 72.1728V79.3914H1147.38V52.6892H1151.02L1151.66 54.3501C1152.74 53.2641 1154.41 52.1143 1157.09 52.1143C1162.14 52.1143 1164.5 55.8832 1164.5 62.0158C1164.5 68.4039 1160.79 72.4922 1155.49 72.4922C1154.47 72.4922 1153.7 72.4284 1152.55 72.1728ZM1152.55 57.0331V68.5955C1152.81 68.6594 1153.51 68.7233 1154.21 68.7233C1157.86 68.7233 1159.32 66.168 1159.32 62.0797C1159.32 58.5023 1158.37 56.3943 1155.43 56.3943C1154.47 56.3304 1153.38 56.5859 1152.55 57.0331Z" fill="#1E1E1E"/>
<path d="M1175.68 60.2271H1178.62V59.5883C1178.62 57.4802 1177.4 56.4582 1175.36 56.4582C1173.76 56.4582 1171.72 56.9053 1170.06 57.7358L1168.65 54.2862C1170.5 53.0086 1173.31 52.1143 1175.81 52.1143C1180.73 52.1143 1183.41 54.7334 1183.41 59.7161V71.9812H1179.77L1179.26 70.3842C1177.15 71.9173 1175.3 72.5561 1173.57 72.5561C1169.8 72.5561 1167.69 70.3203 1167.69 66.4874C1167.69 62.3991 1170.5 60.2271 1175.68 60.2271ZM1178.62 66.9985V63.485H1176.25C1173.63 63.485 1172.29 64.4433 1172.29 66.3597C1172.29 67.8289 1173.06 68.5316 1174.53 68.5316C1175.93 68.5316 1177.72 67.8289 1178.62 66.9985Z" fill="#1E1E1E"/>
<path d="M1198.99 70.0001C1197.21 74.7912 1195.03 78.3047 1191.9 80.2211L1188.71 77.2826C1190.56 75.6855 1191.84 74.1524 1192.99 72.0443L1186.15 53.3911L1191.26 51.9858L1195.61 67.1255L1199.95 51.9219L1205 53.3273L1198.99 70.0001Z" fill="#1E1E1E"/>
<defs>
<clipPath id="clip0_20428_207440">
<rect width="192" height="32.3536" fill="white" transform="translate(41 42)"/>
</clipPath>
<clipPath id="clip1_20428_207440">
<rect width="110" height="30" fill="white" transform="translate(909 44)"/>
</clipPath>
</defs>
</svg>
