<svg width="150" height="110" viewBox="0 0 150 110" fill="none" xmlns="http://www.w3.org/2000/svg">
<path d="M35.2515 27.1999L32.0469 23.1618L32.5529 22.8253L34.1271 24.8444L34.4082 21.4232L35.0828 20.9185L34.8017 23.7227L38.3437 24.9005L37.7252 25.4052L34.8017 24.3957L34.6893 25.5174L35.8137 26.9195L35.2515 27.1999Z" fill="#00418E"/>
<path d="M37.9505 22.9374C37.5569 22.3205 37.4445 21.8157 37.557 21.3671C37.6694 20.9745 37.8943 20.694 38.2316 20.4697C38.6252 20.2454 39.0187 20.1893 39.4685 20.3014C39.9182 20.4136 40.2556 20.7501 40.5929 21.2549C40.8178 21.6475 40.9864 21.984 41.0427 22.3205C41.0989 22.6009 41.0427 22.8813 40.9302 23.1618C40.8178 23.4422 40.5929 23.6104 40.368 23.7787C39.9745 24.003 39.5247 24.0591 39.1311 23.9469C38.6814 23.7787 38.2878 23.4422 37.9505 22.9374ZM38.4565 22.6009C38.7376 22.9935 38.9625 23.2739 39.2998 23.33C39.5809 23.4422 39.862 23.3861 40.0869 23.2739C40.3118 23.1057 40.4805 22.9374 40.4805 22.6009C40.5367 22.2644 40.368 21.9279 40.1431 21.5353C39.9182 21.1427 39.6371 20.9184 39.356 20.8062C39.0749 20.694 38.7938 20.7501 38.5689 20.8623C38.344 21.0305 38.1754 21.2549 38.1754 21.5353C38.0629 21.8718 38.1754 22.2083 38.4565 22.6009Z" fill="#00418E"/>
<path d="M42.7288 22.2642L40.9297 19.0113L41.3795 18.787L41.6606 19.2918C41.6606 19.0113 41.6606 18.787 41.7168 18.6748C41.773 18.5627 41.8292 18.4505 41.9979 18.3944C42.1666 18.2822 42.3914 18.2822 42.6163 18.2822L42.7288 18.8992C42.5601 18.8992 42.3914 18.8992 42.279 18.9552C42.1666 19.0113 42.1103 19.1235 42.0541 19.2357C41.9979 19.3478 41.9979 19.5161 41.9979 19.6283C42.0541 19.8526 42.1666 20.0769 42.279 20.3013L43.2348 21.9838L42.7288 22.2642Z" fill="#00418E"/>
<path d="M46.7794 18.9554L47.3416 18.7871C47.3979 19.1797 47.3979 19.5162 47.2292 19.7966C47.1167 20.0771 46.8356 20.3014 46.4983 20.4696C46.0485 20.694 45.5988 20.694 45.2052 20.5257C44.8117 20.3575 44.4744 19.9649 44.1932 19.4601C43.9121 18.8993 43.8559 18.3945 43.9684 17.9458C44.0808 17.4972 44.3619 17.2167 44.8117 16.9924C45.2052 16.8241 45.655 16.8241 46.0485 16.9924C46.4421 17.1607 46.7794 17.5532 47.0605 18.1141C47.0605 18.1141 47.1168 18.1702 47.1168 18.2823L44.8117 19.348C44.9803 19.6845 45.2614 19.9649 45.4863 20.0771C45.7674 20.1892 45.9923 20.1892 46.2734 20.0771C46.4421 19.9649 46.6108 19.8527 46.7232 19.6845C46.7794 19.4601 46.8356 19.2358 46.7794 18.9554ZM44.643 18.8432L46.3859 18.058C46.2172 17.7776 46.0485 17.6093 45.8799 17.4972C45.5988 17.385 45.3177 17.3289 45.0928 17.4972C44.8679 17.6093 44.6992 17.7776 44.5868 18.058C44.4744 18.2263 44.4743 18.5067 44.643 18.8432Z" fill="#00418E"/>
<path d="M50.9376 18.1141C50.8252 18.3945 50.6565 18.5628 50.4878 18.7311C50.3192 18.8993 50.1505 19.0115 49.9256 19.0676C49.5883 19.1797 49.251 19.1797 49.0261 19.0676C48.745 18.9554 48.5763 18.7311 48.4639 18.4506C48.4076 18.2824 48.3514 18.1141 48.4076 17.9459C48.4076 17.7776 48.4639 17.6094 48.5763 17.4972C48.6325 17.385 48.745 17.2728 48.9136 17.1607C48.9699 17.1046 49.1385 16.9924 49.3634 16.8803C49.757 16.6559 50.0943 16.4877 50.2629 16.3194C50.2067 16.2072 50.2067 16.2072 50.2067 16.1512C50.0943 15.9268 49.9818 15.7586 49.8694 15.7025C49.7007 15.5903 49.4758 15.6464 49.1947 15.7586C48.9136 15.8707 48.8012 15.9829 48.6887 16.0951C48.5763 16.2633 48.5763 16.4316 48.6325 16.712L48.0703 16.8242C48.0703 16.5437 48.0703 16.3194 48.1265 16.1512C48.1828 15.9829 48.2952 15.8146 48.4639 15.6464C48.6325 15.4781 48.8574 15.366 49.1385 15.2538C49.4196 15.1416 49.6445 15.0855 49.8132 15.1416C50.0381 15.1416 50.1505 15.1977 50.3192 15.2538C50.4316 15.3099 50.544 15.4221 50.6565 15.5903C50.7127 15.7025 50.8252 15.8707 50.8814 16.1512L51.1625 16.9363C51.3874 17.4972 51.4998 17.8337 51.6123 17.9459C51.6685 18.1141 51.7809 18.2263 51.8934 18.3385L51.3311 18.5628C51.1063 18.3945 51.05 18.2824 50.9376 18.1141ZM50.3754 16.8242C50.2067 16.9924 49.9818 17.1607 49.5883 17.385C49.3634 17.4972 49.251 17.6094 49.1385 17.6654C49.0823 17.7215 49.0261 17.8337 49.0261 17.9459C49.0261 18.058 49.0261 18.1702 49.0261 18.2263C49.0823 18.3945 49.1947 18.5067 49.3634 18.5628C49.5321 18.6189 49.7007 18.6189 49.9256 18.5628C50.1505 18.4506 50.3192 18.3945 50.4316 18.2263C50.544 18.058 50.6003 17.8898 50.6003 17.6654C50.6003 17.4972 50.544 17.3289 50.4878 17.0485L50.3754 16.8242Z" fill="#00418E"/>
<path d="M54.5391 17.3849L54.9326 12.0008L55.6073 11.8325L58.8119 16.3193L58.1372 16.4875L57.1815 15.1415L55.2699 15.6463L55.1575 17.2166L54.5391 17.3849ZM55.3262 15.0293L56.9004 14.6368L56.057 13.4029C55.7759 13.0103 55.6073 12.7299 55.4386 12.4495C55.4948 12.786 55.4386 13.1225 55.4386 13.459L55.3262 15.0293Z" fill="#00418E"/>
<path d="M61.6747 14.3565H62.2369C62.2932 14.8051 62.1807 15.1416 61.9558 15.4221C61.7872 15.7025 61.4498 15.8707 61.1125 15.9268C60.6627 16.039 60.2692 15.9268 59.9319 15.6464C59.5945 15.366 59.3697 14.9173 59.2572 14.3565C59.1448 13.9639 59.1448 13.6274 59.201 13.2908C59.2572 12.9543 59.3697 12.73 59.5945 12.5057C59.8194 12.3374 60.0443 12.1692 60.3254 12.1131C60.6627 12.057 61.0001 12.1131 61.2812 12.2252C61.5623 12.3935 61.7872 12.6178 61.8996 13.0104L61.3374 13.1787C61.225 12.9543 61.1125 12.7861 60.9438 12.6739C60.7752 12.5617 60.6065 12.5617 60.4379 12.5617C60.1567 12.6178 59.9319 12.7861 59.8194 13.0104C59.707 13.2348 59.6508 13.6274 59.7632 14.1321C59.8756 14.6369 59.9881 14.9734 60.213 15.1416C60.4379 15.3099 60.6627 15.4221 60.9438 15.366C61.1687 15.3099 61.3374 15.1977 61.4498 15.0295C61.6747 14.9173 61.7309 14.693 61.6747 14.3565Z" fill="#00418E"/>
<path d="M65.5575 13.7957H66.1198C66.1198 14.2443 66.0073 14.5809 65.7824 14.8613C65.5575 15.1417 65.2764 15.31 64.8829 15.366C64.4331 15.4221 64.0396 15.31 63.7022 15.0295C63.3649 14.7491 63.14 14.3004 63.0838 13.6835C63.0276 13.2909 63.0276 12.9544 63.14 12.6179C63.2525 12.3375 63.3649 12.057 63.5898 11.8888C63.8147 11.7205 64.0396 11.6084 64.3769 11.5523C64.7704 11.4962 65.0515 11.5523 65.3327 11.7205C65.6138 11.8888 65.7824 12.1692 65.8949 12.5057L65.3327 12.674C65.2202 12.4496 65.1078 12.2814 64.9953 12.1692C64.8267 12.057 64.658 12.057 64.4893 12.057C64.2082 12.1131 63.9833 12.2253 63.8709 12.5057C63.7022 12.7301 63.7022 13.1227 63.7585 13.6274C63.8147 14.1322 63.9833 14.4687 64.152 14.693C64.3769 14.9174 64.6018 14.9734 64.8829 14.9174C65.1078 14.8613 65.2764 14.8052 65.3889 14.6369C65.5013 14.3565 65.5575 14.0761 65.5575 13.7957Z" fill="#00418E"/>
<path d="M67.4076 14.9733L67.0703 11.2717L67.5763 11.2156L67.6325 11.7765C67.745 11.496 67.8574 11.3278 67.9698 11.2156C68.0823 11.1034 68.1947 11.1034 68.3072 11.0474C68.4758 11.0474 68.7007 11.1034 68.9256 11.2156L68.7569 11.8325C68.5883 11.7765 68.4758 11.7204 68.3072 11.7765C68.1947 11.7765 68.0823 11.8325 67.9698 11.9447C67.8574 12.0569 67.8012 12.1691 67.8012 12.2812C67.745 12.5056 67.745 12.786 67.8012 13.0103L67.9698 14.9172L67.4076 14.9733Z" fill="#00418E"/>
<path d="M72.4734 13.4031L73.0357 13.4592C72.9794 13.8518 72.8108 14.1322 72.5859 14.3566C72.361 14.5809 72.0237 14.6931 71.6301 14.6931C71.1241 14.7492 70.7306 14.5809 70.4495 14.2444C70.1122 13.9079 69.9435 13.4592 69.9435 12.8423C69.8873 12.2254 69.9997 11.7206 70.337 11.3841C70.6181 11.0476 70.9555 10.8232 71.4615 10.8232C71.9112 10.8232 72.3048 10.9354 72.5859 11.2719C72.867 11.6084 73.0357 12.0571 73.0919 12.674C73.0919 12.7301 73.0919 12.7862 73.0919 12.8423L70.5619 12.9545C70.6181 13.3471 70.7306 13.6836 70.8993 13.8518C71.1241 14.0762 71.349 14.1883 71.6301 14.1322C71.855 14.1322 72.0237 14.0762 72.1923 13.9079C72.3048 13.8518 72.4172 13.6836 72.4734 13.4031ZM70.5057 12.5058L72.4734 12.3936C72.4172 12.0571 72.361 11.8328 72.1923 11.7206C71.9675 11.4963 71.7426 11.3841 71.4615 11.3841C71.1804 11.3841 70.9555 11.4963 70.7868 11.7206C70.6181 11.8889 70.5057 12.1693 70.5057 12.5058Z" fill="#00418E"/>
<path d="M76.6269 14.5808V14.1321C76.402 14.5247 76.0647 14.693 75.6712 14.693C75.39 14.693 75.1089 14.5808 74.9403 14.4126C74.7154 14.2443 74.5467 14.02 74.4343 13.7396C74.3218 13.4591 74.2656 13.1226 74.2656 12.73C74.2656 12.3374 74.3218 12.0009 74.4343 11.7205C74.5467 11.4401 74.7154 11.1597 74.9403 11.0475C75.1652 10.8792 75.4463 10.8232 75.7274 10.8232C75.9523 10.8232 76.1209 10.8792 76.2896 10.9914C76.4583 11.1036 76.5707 11.2157 76.6831 11.384V9.5332H77.2453V14.6369L76.6269 14.5808ZM74.8278 12.73C74.8278 13.2348 74.9403 13.5713 75.1089 13.7956C75.2776 14.02 75.5025 14.1321 75.7274 14.1321C75.9523 14.1321 76.1771 14.02 76.402 13.7956C76.5707 13.5713 76.6831 13.2348 76.6831 12.7861C76.6831 12.2814 76.6269 11.8888 76.402 11.6644C76.2334 11.4401 76.0085 11.3279 75.7274 11.3279C75.4463 11.3279 75.2776 11.4401 75.0527 11.6644C74.8841 11.8888 74.8278 12.2253 74.8278 12.73Z" fill="#00418E"/>
<path d="M78.7656 14.6369L78.9343 10.9353L79.4965 10.9914L79.3278 14.693L78.7656 14.6369ZM78.9343 10.2623L78.9905 9.5332L79.5527 9.58929L79.4965 10.3184L78.9343 10.2623Z" fill="#00418E"/>
<path d="M82.1399 14.3004L82.1961 14.8613C82.0275 14.9174 81.8588 14.9174 81.7464 14.8613C81.5215 14.8613 81.3528 14.8052 81.2404 14.693C81.1279 14.5808 81.0717 14.5248 81.0155 14.4126C80.9593 14.3004 80.9593 14.0761 81.0155 13.6835L81.1841 11.5523L80.7344 11.4962L80.7906 10.9914H81.2404L81.2966 10.0941L81.915 9.75757L81.8026 11.0475L82.3648 11.1036L82.3086 11.6084L81.7464 11.5523L81.5777 13.6835C81.5777 13.8517 81.5777 13.9639 81.5777 14.02C81.5777 14.0761 81.6339 14.1322 81.6901 14.1322C81.7464 14.1883 81.8026 14.1883 81.8588 14.1883C81.915 14.3004 82.0275 14.3004 82.1399 14.3004Z" fill="#00418E"/>
<path d="M85.5097 14.7491C85.2848 14.9173 85.06 15.0295 84.8351 15.0856C84.6102 15.1417 84.4415 15.1417 84.1604 15.0856C83.7669 15.0295 83.542 14.9173 83.3733 14.693C83.2047 14.4687 83.1484 14.2443 83.1484 13.9078C83.2047 13.7396 83.2047 13.5713 83.3171 13.4031C83.4295 13.2348 83.542 13.1787 83.6544 13.0665C83.7669 13.0105 83.9355 12.9544 84.1042 12.8983C84.2166 12.8983 84.3853 12.8983 84.6102 12.8422C85.06 12.8422 85.4535 12.7861 85.6784 12.73C85.6784 12.674 85.6784 12.6179 85.6784 12.5618C85.7346 12.2814 85.6784 12.1131 85.6222 12.0009C85.5097 11.8327 85.2848 11.7205 85.0037 11.7205C84.7226 11.6644 84.554 11.7205 84.3853 11.7766C84.2166 11.8888 84.1042 12.057 84.048 12.2814L83.4858 12.1131C83.5982 11.8327 83.6544 11.6644 83.8231 11.4962C83.9355 11.384 84.1604 11.2718 84.3853 11.2158C84.6102 11.1597 84.8913 11.1597 85.1724 11.1597C85.4535 11.2158 85.6784 11.2718 85.8471 11.384C86.0157 11.4962 86.1282 11.6083 86.2406 11.7205C86.2968 11.8327 86.3531 12.0009 86.3531 12.1692C86.3531 12.2814 86.3531 12.4496 86.2968 12.73L86.1844 13.5713C86.1282 14.1322 86.0719 14.5247 86.0719 14.693C86.0719 14.8613 86.0719 14.9734 86.1282 15.1417L85.566 15.0856C85.5097 15.0856 85.5097 14.9173 85.5097 14.7491ZM85.6222 13.347C85.3973 13.4031 85.06 13.4591 84.6664 13.4591C84.4415 13.4591 84.2729 13.4591 84.1604 13.5152C84.048 13.5713 83.9918 13.5713 83.9355 13.6835C83.8793 13.7956 83.8231 13.8517 83.8231 13.9639C83.8231 14.1322 83.8231 14.3004 83.9355 14.4126C84.048 14.5247 84.2166 14.6369 84.4415 14.6369C84.6664 14.6369 84.8351 14.6369 85.06 14.5808C85.2286 14.4687 85.3973 14.3565 85.5097 14.1882C85.566 14.0761 85.6222 13.8517 85.6784 13.5713L85.6222 13.347Z" fill="#00418E"/>
<path d="M88.8337 15.1978V15.7587C88.665 15.7587 88.4964 15.7587 88.3839 15.7587C88.159 15.7587 88.0466 15.6465 87.9341 15.5904C87.8217 15.4783 87.7655 15.4222 87.7655 15.2539C87.7093 15.1418 87.7655 14.8613 87.8217 14.5248L88.2152 12.4497L87.7655 12.3936L87.8779 11.9449L88.2715 12.001L88.4401 11.1037L89.0586 10.8232L88.8337 12.1132L89.3959 12.1693L89.2834 12.674L88.7212 12.5619L88.3277 14.6931C88.2715 14.8613 88.2715 14.9735 88.2715 15.0296C88.2715 15.0857 88.3277 15.1418 88.3839 15.1418C88.4401 15.1978 88.4964 15.1978 88.5526 15.1978C88.665 15.1418 88.7212 15.1978 88.8337 15.1978Z" fill="#00418E"/>
<path d="M89.9531 15.983L90.7402 12.3375L91.3024 12.4497L90.5153 16.0952L89.9531 15.983ZM90.8527 11.6645L91.0213 10.9915L91.5835 11.1036L91.4149 11.8327L90.8527 11.6645Z" fill="#00418E"/>
<path d="M92.2002 14.5249C92.3689 13.8518 92.65 13.4032 93.0997 13.1788C93.4371 13.0106 93.8306 12.9545 94.2242 13.0667C94.6739 13.1788 95.0112 13.4032 95.1799 13.7958C95.4048 14.1884 95.4048 14.6931 95.2361 15.254C95.1237 15.7026 94.955 16.0391 94.7864 16.2635C94.6177 16.4878 94.3366 16.6561 94.0555 16.7682C93.7744 16.8243 93.4933 16.8243 93.2122 16.7682C92.7624 16.6561 92.4251 16.3757 92.2002 16.0391C92.0878 15.6466 92.0315 15.1418 92.2002 14.5249ZM92.7624 14.6931C92.65 15.1418 92.65 15.5344 92.7624 15.7587C92.8749 16.0391 93.0997 16.2074 93.3808 16.2635C93.6619 16.3196 93.8868 16.2635 94.1679 16.0952C94.3928 15.927 94.6177 15.5905 94.7302 15.0857C94.8426 14.637 94.8426 14.3005 94.7302 14.0201C94.6177 13.7397 94.3928 13.5714 94.1117 13.5153C93.8306 13.4593 93.6057 13.5153 93.3246 13.6836C93.0997 13.9079 92.8749 14.1884 92.7624 14.6931Z" fill="#00418E"/>
<path d="M96.0859 17.441L97.2104 13.9077L97.7163 14.076L97.5477 14.5807C97.885 14.2442 98.3348 14.1881 98.7846 14.3003C98.9532 14.3564 99.1219 14.4686 99.2905 14.5807C99.403 14.6929 99.5154 14.8612 99.5716 14.9733C99.6279 15.1416 99.6279 15.3098 99.6279 15.4781C99.6279 15.5903 99.5716 15.8146 99.4592 16.0389L98.7283 18.2262L98.1661 18.058L98.8408 15.9268C98.897 15.7024 98.9532 15.4781 98.9532 15.3659C98.9532 15.2537 98.897 15.0855 98.8408 15.0294C98.7283 14.9172 98.6159 14.8612 98.5034 14.8051C98.2786 14.749 98.0537 14.749 97.8288 14.8612C97.6039 14.9733 97.4352 15.2537 97.2666 15.7024L96.6481 17.6093L96.0859 17.441Z" fill="#00418E"/>
<path d="M102.383 19.6846L104.575 15.0295L106.206 15.7586C106.543 15.9269 106.768 16.0391 106.937 16.2634C107.105 16.4317 107.162 16.656 107.218 16.9364C107.218 17.1608 107.218 17.3851 107.105 17.6094C107.049 17.8338 106.88 18.002 106.712 18.1142C106.543 18.2264 106.318 18.3385 106.037 18.3385C106.262 18.5068 106.375 18.7872 106.431 19.0116C106.487 19.292 106.431 19.5163 106.318 19.7967C106.206 20.0211 106.093 20.1893 105.925 20.3576C105.756 20.5258 105.587 20.5819 105.419 20.638C105.25 20.6941 105.081 20.6941 104.857 20.638C104.632 20.5819 104.407 20.5258 104.126 20.4137L102.383 19.6846ZM103.226 19.3481L104.294 19.8528C104.463 19.9089 104.632 19.965 104.688 20.0211C104.8 20.0772 104.969 20.0772 105.081 20.0211C105.194 20.0211 105.306 19.965 105.419 19.8528C105.531 19.7407 105.644 19.6285 105.7 19.5163C105.812 19.3481 105.812 19.1798 105.812 19.0116C105.812 18.8433 105.7 18.7311 105.587 18.5629C105.475 18.4507 105.25 18.3385 105.025 18.2264L103.957 17.7777L103.226 19.3481ZM104.238 17.2168L105.138 17.6094C105.363 17.7216 105.587 17.7777 105.7 17.7777C105.869 17.7777 105.981 17.7777 106.15 17.6655C106.262 17.6094 106.375 17.4973 106.431 17.329C106.487 17.1608 106.543 17.0486 106.487 16.8803C106.487 16.7682 106.431 16.5999 106.318 16.5438C106.206 16.4317 105.981 16.3195 105.7 16.2073L104.857 15.8147L104.238 17.2168Z" fill="#00418E"/>
<path d="M107.61 20.0211C107.948 19.4042 108.341 19.0677 108.791 18.9555C109.185 18.8433 109.578 18.8994 109.916 19.1238C110.309 19.3481 110.59 19.6846 110.646 20.1333C110.759 20.582 110.646 21.0306 110.365 21.5354C110.14 21.9841 109.916 22.2645 109.634 22.4327C109.41 22.601 109.128 22.7132 108.847 22.7132C108.566 22.7132 108.285 22.6571 108.004 22.5449C107.61 22.3206 107.329 21.9841 107.217 21.5354C107.161 21.0306 107.273 20.582 107.61 20.0211ZM108.116 20.3015C107.892 20.6941 107.779 21.0867 107.835 21.3671C107.892 21.6476 108.004 21.8719 108.285 22.0402C108.51 22.1523 108.791 22.2084 109.072 22.0962C109.353 21.9841 109.634 21.7036 109.859 21.3111C110.084 20.9185 110.197 20.582 110.14 20.2454C110.084 19.965 109.916 19.7407 109.691 19.5724C109.41 19.4042 109.185 19.4042 108.904 19.5163C108.622 19.6285 108.341 19.8529 108.116 20.3015Z" fill="#00418E"/>
<path d="M112.612 24.6201C112.331 24.6762 112.106 24.6762 111.881 24.6201C111.657 24.564 111.488 24.508 111.263 24.3958C110.982 24.1715 110.757 23.9471 110.701 23.6667C110.645 23.3863 110.701 23.1058 110.869 22.8815C110.982 22.7133 111.094 22.6011 111.263 22.545C111.375 22.4328 111.544 22.4328 111.713 22.4328C111.881 22.4328 112.05 22.4328 112.163 22.4889C112.275 22.545 112.444 22.6011 112.669 22.7133C113.062 22.9376 113.399 23.0498 113.624 23.1058C113.68 23.0498 113.737 22.9937 113.737 22.9376C113.905 22.7133 113.962 22.545 113.905 22.3767C113.849 22.2085 113.737 21.9842 113.456 21.872C113.231 21.7037 113.062 21.6476 112.893 21.6476C112.725 21.6476 112.556 21.7598 112.331 21.9281L111.881 21.5355C112.05 21.3111 112.275 21.199 112.444 21.1429C112.612 21.0868 112.837 21.0307 113.062 21.1429C113.287 21.199 113.512 21.3111 113.793 21.4794C114.018 21.6476 114.186 21.8159 114.299 21.9842C114.411 22.1524 114.468 22.3207 114.468 22.4328C114.468 22.6011 114.468 22.7133 114.355 22.8815C114.299 22.9937 114.186 23.1619 114.074 23.3863L113.624 24.0593C113.287 24.564 113.118 24.8445 113.006 24.9566C112.95 25.1249 112.893 25.2371 112.893 25.4053L112.387 25.0688C112.444 24.9566 112.5 24.7884 112.612 24.6201ZM113.343 23.4984C113.118 23.4424 112.781 23.3302 112.444 23.1619C112.219 23.0498 112.05 22.9937 111.938 22.9937C111.825 22.9937 111.713 22.9937 111.657 23.0498C111.544 23.1058 111.488 23.1619 111.432 23.2741C111.319 23.3863 111.319 23.5545 111.319 23.7228C111.375 23.891 111.488 24.0032 111.657 24.1715C111.825 24.2836 112.05 24.3397 112.219 24.3397C112.444 24.3397 112.612 24.2836 112.781 24.1715C112.95 24.0593 113.062 23.9471 113.231 23.7228L113.343 23.4984Z" fill="#00418E"/>
<path d="M113.961 26.1903L116.322 23.2739L116.716 23.6104L116.378 24.0591C116.66 23.9469 116.828 23.8909 116.997 23.8909C117.166 23.8909 117.278 23.9469 117.39 24.003C117.559 24.1152 117.672 24.2834 117.728 24.5078L117.222 24.8443C117.166 24.676 117.053 24.5639 116.997 24.5078C116.884 24.4517 116.772 24.3956 116.66 24.3956C116.547 24.3956 116.378 24.4517 116.266 24.5078C116.097 24.62 115.872 24.7882 115.704 25.0125L114.467 26.5268L113.961 26.1903Z" fill="#00418E"/>
<path d="M117.725 29.4432L118.062 29.1067C117.668 29.2189 117.275 29.1628 116.994 28.8824C116.769 28.7141 116.656 28.4898 116.6 28.2094C116.544 27.9289 116.6 27.6485 116.713 27.3681C116.825 27.0877 116.994 26.8072 117.275 26.5268C117.556 26.2464 117.837 26.0781 118.118 25.9099C118.399 25.7977 118.68 25.7416 118.961 25.7416C119.243 25.7977 119.467 25.9099 119.636 26.0781C119.805 26.1903 119.917 26.3586 119.973 26.5268C120.03 26.6951 120.03 26.8633 120.03 27.0316L121.323 25.6855L121.716 26.0781L118.118 29.7797L117.725 29.4432ZM117.725 26.8633C117.387 27.1998 117.219 27.5363 117.162 27.8168C117.162 28.0972 117.219 28.3215 117.387 28.4898C117.556 28.658 117.781 28.7141 118.118 28.658C118.399 28.602 118.737 28.4337 119.018 28.0972C119.411 27.7046 119.58 27.4242 119.636 27.0877C119.636 26.8072 119.58 26.5829 119.411 26.3586C119.243 26.1903 118.961 26.1342 118.68 26.1903C118.343 26.3025 118.062 26.4707 117.725 26.8633Z" fill="#00418E"/>
<path d="M14.4531 49.0729C14.4531 72.6285 41.608 91.8094 75.0034 91.8094C108.399 91.8094 135.554 72.6285 135.554 49.0729C135.554 25.5174 108.399 6.33643 75.0034 6.33643C41.608 6.39251 14.4531 25.5174 14.4531 49.0729ZM15.2402 49.0729C15.2402 25.9661 42.0015 7.1777 74.9471 7.1777C107.893 7.1777 134.654 25.9661 134.654 49.0729C134.654 72.1798 107.893 90.9682 74.9471 90.9682C42.0577 90.9682 15.2402 72.1798 15.2402 49.0729Z" fill="#00418E"/>
<path d="M69.1537 18.5068C69.3224 18.5068 69.4348 18.4507 69.5473 18.4507C45.4846 20.0771 26.4818 32.0232 24.5703 46.8856H28.4496C30.1924 32.1914 47.3399 20.3576 69.1537 18.5068Z" fill="#00418E"/>
<path d="M67.7475 18.8432C68.0848 18.7872 68.3659 18.675 68.7032 18.6189C49.1383 20.7501 33.9023 32.4718 32.3281 46.9416H36.3198C37.7254 32.8644 50.7687 21.4231 67.7475 18.8432Z" fill="#00418E"/>
<path d="M39.9766 46.8858H43.7434C44.7554 33.9302 53.5821 23.2181 65.5572 19.4043C51.6143 22.9376 41.1572 33.762 39.9766 46.8858Z" fill="#00418E"/>
<path d="M81.1904 80.2559C81.0218 80.312 80.9093 80.312 80.7969 80.312C96.4264 79.2464 109.919 73.8622 117.959 66.1226H114.642C107.333 73.7501 95.2457 79.0781 81.1904 80.2559Z" fill="#00418E"/>
<path d="M125.889 50.7554H121.954C121.672 55.4104 119.817 59.785 116.781 63.6548H120.267C123.584 59.785 125.552 55.4104 125.889 50.7554Z" fill="#00418E"/>
<path d="M82.5964 79.9755C82.3153 80.0316 81.978 80.1438 81.6406 80.1999C94.1217 78.8538 104.86 73.5819 111.382 66.1787H108.008C102.33 73.1893 93.2784 78.293 82.5964 79.9755Z" fill="#00418E"/>
<path d="M118.069 50.7554H114.078C113.853 55.4104 112.278 59.785 109.805 63.6548H113.347C116.101 59.785 117.788 55.4104 118.069 50.7554Z" fill="#00418E"/>
<path d="M84.7891 79.3585C93.166 77.2834 100.306 72.4601 104.916 66.1226H101.824C97.8886 72.348 91.8729 77.0591 84.7891 79.3585Z" fill="#00418E"/>
<path d="M110.367 50.7554H106.656C106.431 55.4104 105.251 59.785 103.227 63.6548H106.487C108.792 59.785 110.142 55.4104 110.367 50.7554Z" fill="#00418E"/>
<path d="M28.3402 50.7554H24.4609C25.5291 66.1787 44.9255 78.6855 69.5504 80.312C69.4379 80.312 69.2692 80.2559 69.1568 80.2559C46.7808 78.349 29.3522 65.9543 28.3402 50.7554Z" fill="#E6001F"/>
<path d="M65.5587 79.3585C53.2463 75.4326 44.2509 64.1596 43.6325 50.7554H39.9219C40.5965 64.3839 51.2223 75.7691 65.5587 79.3585Z" fill="#E6001F"/>
<path d="M36.2651 50.7554H32.2734C32.5545 55.3543 34.185 59.7289 36.9398 63.5988H40.4817C38.008 59.7289 36.49 55.3543 36.2651 50.7554Z" fill="#E6001F"/>
<path d="M68.7067 80.1999C68.3694 80.1438 68.0883 80.0317 67.7509 79.9756C57.1251 78.3491 48.0735 73.2454 42.4514 66.2349H39.0781C45.5998 73.5819 56.2818 78.7978 68.7067 80.1999Z" fill="#E6001F"/>
<path d="M119.804 34.5469H116.375C119.411 38.2485 121.322 42.4548 121.885 46.8855H125.764C125.202 42.4548 123.122 38.3045 119.804 34.5469Z" fill="#E6001F"/>
<path d="M117.109 31.911C108.957 24.5639 95.8579 19.4602 80.7344 18.4507C80.8468 18.4507 81.0155 18.5068 81.1279 18.5068C94.7335 19.6845 106.484 24.6761 113.849 31.8549H117.109V31.911Z" fill="#E6001F"/>
<path d="M117.672 44.9787C117.616 44.8665 117.616 44.7544 117.616 44.6422C116.829 40.9406 115.198 37.5194 112.781 34.3787H112.725C110.982 32.0231 108.621 29.6115 105.528 27.4242C99.1754 22.8252 90.9108 19.6284 81.5781 18.6189C81.9155 18.675 82.1966 18.7872 82.5339 18.8432C90.18 20.021 96.9827 22.9935 102.38 27.1438C102.38 27.1438 102.492 27.1998 102.605 27.312C104.291 28.6581 105.809 30.1163 107.159 31.6866C109.97 34.9956 113.062 40.0432 113.962 46.8856H117.953C117.953 46.8856 117.897 46.2686 117.728 45.2591C117.728 45.203 117.728 45.0909 117.672 44.9787Z" fill="#E6001F"/>
<path d="M102.945 34.5469C104.969 38.2485 106.206 42.4548 106.543 46.8855H110.254C109.861 42.4548 108.399 38.2485 106.15 34.5469H102.945V34.5469Z" fill="#E6001F"/>
<path d="M84.7812 19.4602C91.6402 21.6475 97.431 26.0782 101.367 31.911H104.402C99.7361 25.9099 92.8209 21.4232 84.7812 19.4602Z" fill="#E6001F"/>
<path d="M98.507 49.4655L97.6637 48.8486L98.4508 48.1756C99.013 47.6708 99.6877 46.8856 99.6877 45.9322C99.6877 43.9692 97.3264 42.3428 94.5153 42.3428H89.6241C89.6241 42.3428 85.801 42.3428 84.7891 42.3428C84.7891 43.6327 84.7891 56.3639 84.7891 56.7004H87.825H94.178C97.4951 56.7004 100.25 54.7375 100.25 52.438C100.25 51.3724 99.5752 50.3068 98.507 49.4655ZM89.0056 47.3343V43.6327H92.66C94.1218 43.6327 95.2462 44.6422 95.2462 45.8761C95.2462 47.1661 94.1218 48.1195 92.66 48.1195H89.0056V47.3343ZM92.4351 55.2983H89.0056V54.5131V49.4655H92.4351C94.4029 49.4655 95.9209 50.7555 95.9209 52.3819C95.9209 54.0645 94.4029 55.2983 92.4351 55.2983Z" fill="#00418E"/>
<path d="M51.8438 56.6443C52.7433 56.6443 55.1608 56.6443 56.0041 56.6443C56.0041 55.4665 56.0041 43.5205 56.0041 42.2866C55.1608 42.2866 52.7433 42.2866 51.8438 42.2866C51.8438 42.567 51.8438 56.3639 51.8438 56.6443Z" fill="#00418E"/>
<path d="M73.994 42.2866C73.6567 43.0157 67.4161 56.3639 67.4161 56.3639L60.6696 48.7364C60.6696 48.7364 64.8299 44.0813 66.4604 42.2866C65.4484 42.2866 63.9304 42.2866 63.6493 42.2866C63.2557 42.6792 56.2281 50.5872 56.1719 50.6432C56.2281 50.6993 61.2318 56.3078 61.5691 56.6443C62.0189 56.6443 69.0465 56.6443 69.0465 56.6443L74.2189 45.4834L77.311 52.1014H72.4198L73.1507 53.784H78.0981L79.4474 56.7004H83.8327C83.8327 56.7004 77.4797 43.1279 77.1424 42.3427C76.5239 42.2866 74.5 42.2866 73.994 42.2866Z" fill="#00418E"/>
<path d="M45.8232 83.4528L42.2812 81.8824L42.9559 80.3681L43.6306 80.6486L43.1808 81.602L46.0481 82.892L45.8232 83.4528ZM44.755 78.8539C45.1485 79.0221 45.4296 79.2465 45.5421 79.4708C45.7107 79.6951 45.7107 79.9755 45.5983 80.256C45.4859 80.5364 45.261 80.7047 44.9799 80.7607C44.6988 80.8168 44.3614 80.7607 43.9679 80.5925C43.5743 80.4242 43.2932 80.1999 43.1808 79.9755C43.0121 79.7512 43.0121 79.4708 43.1246 79.1904C43.237 78.9099 43.4619 78.7417 43.743 78.7417C44.0241 78.5734 44.3614 78.6856 44.755 78.8539ZM46.3292 79.3586L43.2932 78.0126L43.5181 77.5078L46.5541 78.8539L46.3292 79.3586ZM44.249 80.0316C44.4177 80.0877 44.5863 80.1438 44.755 80.1438C44.9236 80.1438 45.0361 80.0877 45.0923 79.9755C45.1485 79.8634 45.1485 79.7512 45.0361 79.639C44.9236 79.5269 44.8112 79.4147 44.5863 79.3586C44.4177 79.3025 44.249 79.2465 44.0803 79.2465C43.9117 79.2465 43.7992 79.3025 43.743 79.4147C43.6868 79.5269 43.743 79.639 43.7992 79.7512C43.9117 79.8634 44.0803 79.9195 44.249 80.0316ZM45.8794 78.2369L44.5863 77.62L44.8112 77.1152L46.1043 77.7322L45.8794 78.2369ZM47.5098 81.2094L46.8352 80.929L46.2167 82.3311L45.5421 82.0507L47.3412 78.1248L48.0158 78.4052L47.1725 80.3121L47.8471 80.5925L47.5098 81.2094Z" fill="#00418E"/>
<path d="M54.984 82.8919C55.0965 82.7237 55.2089 82.5554 55.2651 82.3871C55.3214 82.1628 55.3776 81.9946 55.4338 81.8263L52.3416 80.9289L52.5103 80.312L56.3896 81.4337C56.2771 81.7702 56.1647 82.1067 56.0522 82.3871C55.9398 82.6676 55.8274 82.8919 55.7149 83.1162L56.6145 83.3967L56.4458 84.0136L54.1969 83.3406L53.9721 84.1258L55.4338 84.5745L54.8154 86.6496L54.1407 86.4252L54.5343 85.0231L51.4421 84.1258L51.6108 83.5088L53.2412 83.9575L53.4661 83.1723L51.2734 82.4993L51.4421 81.8824L54.984 82.8919Z" fill="#00418E"/>
<path d="M62.4666 82.9481C62.9164 83.0042 63.2537 83.2285 63.4223 83.509C63.6472 83.7894 63.7035 84.1259 63.6472 84.5185C63.591 84.855 63.4223 85.1915 63.1412 85.3597C62.8601 85.5841 62.4666 85.6402 62.0168 85.5841C61.6233 85.528 61.2859 85.3597 61.0611 85.0793C60.8362 84.7989 60.7237 84.4624 60.78 84.0698C60.8362 83.7333 61.0048 83.4529 61.2859 83.1724C61.6233 82.9481 61.9606 82.892 62.4666 82.9481ZM64.7717 88.3883L60.8362 87.7714L61.1173 85.9206L61.8482 86.0328L61.6795 87.2105L64.8841 87.7153L64.7717 88.3883ZM62.1293 84.9672C62.3541 85.0232 62.5228 84.9672 62.6915 84.855C62.8601 84.7428 62.9164 84.6307 62.9726 84.4063C62.9726 84.2381 62.9726 84.0698 62.8601 83.9015C62.7477 83.7333 62.579 83.6211 62.3541 83.6211C62.073 83.565 61.9044 83.6211 61.7357 83.7333C61.6233 83.8455 61.5108 84.0137 61.5108 84.182C61.5108 84.3502 61.5108 84.5185 61.6233 84.6306C61.7357 84.7989 61.9044 84.9111 62.1293 84.9672ZM64.7717 87.0423L64.0408 86.9301L64.7154 82.8359L65.4463 82.9481L64.7717 87.0423Z" fill="#00418E"/>
<path d="M72.1314 85.5839C72.2438 85.6961 72.3563 85.8083 72.5249 85.9204C72.6936 86.0326 72.8622 86.1448 73.0871 86.2569L72.5811 86.7617C72.4687 86.7056 72.3 86.5934 72.1314 86.4813C71.9627 86.3691 71.8503 86.2569 71.6816 86.1448C71.5692 86.0887 71.5129 85.9765 71.4005 85.8643C71.2881 85.7522 71.2318 85.64 71.1756 85.5278C71.1194 85.64 71.0632 85.7522 70.9507 85.8643C70.8383 85.9765 70.7258 86.0887 70.6696 86.1448C70.5572 86.2569 70.4447 86.313 70.3323 86.4252C70.2198 86.5374 70.0512 86.5935 69.8825 86.6495L69.3203 86.1448C69.5452 86.0326 69.7139 85.9765 69.9387 85.8083C70.1074 85.6961 70.2761 85.5839 70.3885 85.4718C70.4447 85.4157 70.5572 85.3035 70.6696 85.1353C70.7821 84.967 70.8945 84.7427 70.8945 84.4622L69.7701 84.4061V83.7331L72.806 83.8453V84.5183L71.6816 84.4622C71.6816 84.6866 71.7378 84.9109 71.8503 85.0792C71.9065 85.3035 72.0189 85.4718 72.1314 85.5839ZM72.2438 86.93C72.6936 86.93 73.1996 87.0421 73.5931 87.1543C74.0429 87.3225 74.2116 87.603 74.2116 88.0517C74.2116 88.5003 73.9867 88.7808 73.5369 88.8929C73.0871 89.0051 72.6374 89.0612 72.1314 89.0612C71.6816 89.0612 71.2318 88.949 70.7821 88.8368C70.3323 88.6686 70.1636 88.3882 70.1636 87.9395C70.1636 87.4908 70.3885 87.2104 70.8383 87.0982C71.2881 86.986 71.7378 86.93 72.2438 86.93ZM72.1876 88.4442C72.5249 88.4442 72.8622 88.4442 73.0871 88.3882C73.3682 88.3321 73.4807 88.2199 73.4807 87.9956C73.4807 87.7712 73.3682 87.6591 73.0871 87.603C72.806 87.5469 72.5249 87.4908 72.1876 87.4908C71.8503 87.4908 71.5129 87.4908 71.2881 87.5469C71.0069 87.603 70.8945 87.7151 70.8945 87.9395C70.8945 88.1638 71.0069 88.276 71.2881 88.3321C71.5129 88.3882 71.8503 88.4442 72.1876 88.4442ZM74.2116 86.986L73.4807 86.93L73.5369 85.6961L72.5811 85.64V84.967L73.5369 85.0231L73.5931 83.5088L74.324 83.5649L74.2116 86.986Z" fill="#00418E"/>
<path d="M81.5797 86.6496C81.6922 86.7618 81.8609 86.93 82.0857 87.0983C82.3106 87.2665 82.5355 87.3787 82.7042 87.4909L82.1982 88.1078C82.0295 87.9956 81.8609 87.8835 81.6922 87.7713C81.5235 87.603 81.3549 87.4909 81.2424 87.3787C81.13 87.2665 81.0175 87.1544 80.9051 86.9861C80.7927 86.8179 80.6802 86.7057 80.624 86.5935C80.5678 86.7618 80.5115 86.8739 80.4553 87.0422C80.3991 87.2104 80.2867 87.3226 80.1742 87.4348C80.0618 87.603 79.9493 87.7713 79.7807 87.9395C79.612 88.1639 79.4433 88.276 79.3309 88.3882L78.6562 87.9395C78.8249 87.8274 79.0498 87.6591 79.2747 87.3787C79.4996 87.1544 79.6682 86.93 79.7807 86.7057C79.8931 86.5374 80.0056 86.257 80.0618 85.9766C80.118 85.6962 80.1742 85.3597 80.118 85.0231V84.7427L78.8811 84.8549L78.8249 84.1819L82.0295 83.9575L82.0857 84.6306L80.8489 84.7427V85.0231C80.9051 85.5279 80.9613 85.8644 81.13 86.0888C81.2986 86.3131 81.4673 86.4813 81.5797 86.6496ZM83.6599 88.7247L82.9291 88.7808L82.4793 83.2284L83.2102 83.1724L83.6599 88.7247Z" fill="#00418E"/>
<path d="M91.8152 84.799C91.7028 84.855 91.4779 84.9111 91.1968 84.9672C90.9157 85.0233 90.6908 85.0794 90.5221 85.1355L90.747 86.145L90.0161 86.3132L89.8475 85.3598C89.6226 85.4159 89.3977 85.5281 89.0604 85.5841C88.7231 85.6963 88.442 85.7524 88.2171 85.8085L87.9922 85.1915C88.1609 85.1355 88.4982 85.0794 88.9479 84.9672C89.3977 84.855 89.8475 84.7429 90.1848 84.6307C90.4659 84.5746 90.6908 84.4624 90.9157 84.4064C91.1406 84.3503 91.3655 84.2381 91.6466 84.182L91.8152 84.799ZM89.4539 82.3873C89.7913 82.3312 90.1286 82.3312 90.4659 82.4434C90.8032 82.5556 90.9719 82.7799 91.0281 83.1164C91.0844 83.4529 91.0281 83.7333 90.747 83.9577C90.4659 84.182 90.1848 84.2942 89.8475 84.4064C89.5102 84.4624 89.1728 84.4624 88.8355 84.3503C88.4982 84.2381 88.3295 84.0138 88.2171 83.6773C88.1608 83.3407 88.2171 83.0603 88.4982 82.836C88.7793 82.6116 89.1166 82.4995 89.4539 82.3873ZM89.735 83.8455C89.9037 83.7894 90.0724 83.7333 90.241 83.6212C90.3535 83.509 90.4097 83.3968 90.4097 83.2286C90.3535 83.0603 90.2973 83.0042 90.1286 82.9482C89.9599 82.8921 89.7913 82.8921 89.6226 82.9482C89.4539 83.0042 89.2853 83.0603 89.1166 83.1725C88.9479 83.2847 88.8917 83.3968 88.9479 83.5651C89.0042 83.7333 89.0604 83.7894 89.2291 83.8455C89.3977 83.9016 89.5664 83.9016 89.735 83.8455ZM93.3894 86.9863L89.4539 87.7714L89.1166 85.9767L89.8475 85.8085L90.0724 86.9302L93.277 86.2572L93.3894 86.9863ZM92.9396 85.9206L92.2088 86.0889L92.0963 85.5841L91.0281 85.8085L90.9157 85.2476L91.9839 85.0233L91.3092 81.8265L92.0401 81.6582L92.9396 85.9206Z" fill="#00418E"/>
<path d="M98.2243 81.2654C98.3368 81.6019 98.5054 81.8823 98.8427 82.0505C99.1801 82.2188 99.4612 82.3871 99.7423 82.4431L99.405 83.1162C99.1801 83.0601 98.9552 82.9479 98.7303 82.7796C98.5054 82.6114 98.3368 82.4992 98.1681 82.387C98.1119 82.5553 98.0556 82.7796 97.9994 83.0601C97.9432 83.3405 97.7745 83.5648 97.6059 83.8453L96.875 83.6209C97.1561 83.1722 97.381 82.7236 97.4934 82.331C97.6059 81.8823 97.5497 81.3775 97.3248 80.6484L98.0556 80.4802C98.1119 80.6484 98.1119 80.7606 98.1681 80.8728C98.1681 80.9289 98.1681 81.0971 98.2243 81.2654ZM102.666 84.1257L98.7303 85.4717L98.0556 83.5648L98.7303 83.3405L99.1801 84.5744L102.385 83.4527L102.666 84.1257ZM100.923 83.1722L100.248 83.3966L99.6298 81.6579L98.9552 81.8823L98.7303 81.2654L99.405 81.041L98.9552 79.8072L99.6298 79.5828L100.923 83.1722ZM102.104 83.004L101.429 83.2283L100.08 79.2463L100.754 79.022L102.104 83.004Z" fill="#00418E"/>
<path d="M109.693 79.9756C109.524 80.0877 109.187 80.3121 108.625 80.6486C108.062 80.9851 107.5 81.2655 106.826 81.6581L104.914 78.0126L107.444 76.7227L107.725 77.2835L105.87 78.237L106.263 79.0221L107.781 78.237L108.062 78.7978L106.544 79.583L107.107 80.7047C107.444 80.5364 107.838 80.3121 108.231 80.0878C108.681 79.8634 108.962 79.6391 109.243 79.4147L109.693 79.9756ZM111.267 80.256L110.592 80.5925L109.356 78.237L108.4 78.7417L108.119 78.1809L109.074 77.6761L108.006 75.6571L108.681 75.3206L111.267 80.256Z" fill="#00418E"/>
</svg>
