<svg id="레이어_1" data-name="레이어 1" xmlns="http://www.w3.org/2000/svg" xmlns:xlink="http://www.w3.org/1999/xlink" viewBox="0 0 573 403"><defs><style>.cls-1{fill:#f4f6fb;}.cls-1,.cls-2,.cls-4,.cls-5,.cls-9{fill-rule:evenodd;}.cls-2{fill:#023f97;}.cls-3{fill:url(#무제_그라디언트_3);}.cls-4{fill:#fff;}.cls-5{fill:#fbfbfc;}.cls-6{fill:url(#무제_그라디언트_2);}.cls-7{fill:url(#무제_그라디언트_2-2);}.cls-8{fill:url(#무제_그라디언트_2-3);}.cls-9{fill:#f7931a;}.cls-10{fill:url(#무제_그라디언트_5);}.cls-11{fill:url(#무제_그라디언트_6);}</style><linearGradient id="무제_그라디언트_3" x1="-612.11" y1="2776.5" x2="-612.37" y2="2777.47" gradientTransform="matrix(140, 0, 0, -140, 86063.59, 388965.41)" gradientUnits="userSpaceOnUse"><stop offset="0" stop-color="#023f97"/><stop offset="0.99" stop-color="#0062df"/></linearGradient><linearGradient id="무제_그라디언트_2" x1="-608.8" y1="2788.11" x2="-609.06" y2="2789.08" gradientTransform="matrix(80, 0, 0, -80, 48976.19, 223118.69)" gradientUnits="userSpaceOnUse"><stop offset="0" stop-color="#b2b9cc"/><stop offset="1" stop-color="#e9edf4"/></linearGradient><linearGradient id="무제_그라디언트_2-2" x1="-608.8" y1="2788.11" x2="-609.06" y2="2789.08" gradientTransform="matrix(80, 0, 0, -80, 49132.81, 223400.68)" xlink:href="#무제_그라디언트_2"/><linearGradient id="무제_그라디언트_2-3" x1="-606.23" y1="2797.14" x2="-606.49" y2="2798.1" gradientTransform="matrix(60, 0, 0, -60, 36530.85, 168094.7)" xlink:href="#무제_그라디언트_2"/><linearGradient id="무제_그라디언트_5" x1="-610.34" y1="2782.69" x2="-610.6" y2="2783.66" gradientTransform="matrix(100, 0, 0, -100, 61289.91, 278656.88)" gradientUnits="userSpaceOnUse"><stop offset="0" stop-color="#fca82f"/><stop offset="1" stop-color="#fde0a9"/></linearGradient><linearGradient id="무제_그라디언트_6" x1="-610.35" y1="2782.69" x2="-610.6" y2="2783.66" gradientTransform="matrix(100, 0, 0, -100, 61567.53, 278422.88)" gradientUnits="userSpaceOnUse"><stop offset="0" stop-color="#3f475c"/><stop offset="0.98" stop-color="#aeb6c4"/></linearGradient></defs><path class="cls-1" d="M486.82,266.42a11.65,11.65,0,1,1,11.65-11.65A11.66,11.66,0,0,1,486.82,266.42Zm0-53.94c-6.43,0-11.65-5.65-11.65-12.08a11.65,11.65,0,1,1,23.3,0C498.47,206.83,493.26,212.48,486.82,212.48Zm0-54.8a11.66,11.66,0,1,1,11.65-11.44A11.61,11.61,0,0,1,486.82,157.68ZM461.19,293.61A11.66,11.66,0,1,1,472.84,282,11.65,11.65,0,0,1,461.19,293.61Zm0-27.19a11.65,11.65,0,1,1,11.65-11.65A11.65,11.65,0,0,1,461.19,266.42Zm0-53.94c-6.44,0-11.65-5.65-11.65-12.08a11.65,11.65,0,1,1,23.3,0C472.84,206.83,467.62,212.48,461.19,212.48Zm0-27.62a11.65,11.65,0,1,1,11.65-11.65A11.64,11.64,0,0,1,461.19,184.86Zm0-81.56c-6.44,0-11.65-4.44-11.65-11.65a11.65,11.65,0,0,1,23.3,0C472.84,98.86,467.62,103.3,461.19,103.3Zm0-28c-6.44,0-11.65-4.44-11.65-11.65a11.65,11.65,0,1,1,23.3,0C472.84,70.86,467.62,75.3,461.19,75.3ZM435.55,293.61A11.66,11.66,0,1,1,447.21,282,11.66,11.66,0,0,1,435.55,293.61Zm0-135.93a11.66,11.66,0,1,1,11.66-11.44A11.61,11.61,0,0,1,435.55,157.68Zm0-54.38c-6.43,0-11.65-4.44-11.65-11.65a11.66,11.66,0,0,1,23.31,0C447.21,98.86,442,103.3,435.55,103.3ZM409.92,320.79a11.65,11.65,0,1,1,11.65-11.65A11.65,11.65,0,0,1,409.92,320.79Zm0-163.11a11.66,11.66,0,1,1,11.65-11.44A11.61,11.61,0,0,1,409.92,157.68Zm0-54.38c-6.43,0-11.65-4.44-11.65-11.65a11.65,11.65,0,1,1,23.3,0C421.57,98.86,416.36,103.3,409.92,103.3Zm-25.63,54.38a11.66,11.66,0,1,1,11.65-11.44A11.61,11.61,0,0,1,384.29,157.68Zm0-54.38c-6.44,0-11.65-4.44-11.65-11.65a11.65,11.65,0,1,1,23.3,0C395.94,98.86,390.72,103.3,384.29,103.3Zm0-28c-6.44,0-11.65-4.44-11.65-11.65a11.65,11.65,0,1,1,23.3,0C395.94,70.86,390.72,75.3,384.29,75.3ZM358.66,239.23c-6.44,0-11.16-5-11.16-11.65,0-6.43,4.72-11.65,11.16-11.65,7.25,0,11.65,5.22,11.65,11.65C370.31,234.18,365.91,239.23,358.66,239.23Zm0-54.37c-6.44,0-11.16-5.21-11.16-11.65s4.72-11.65,11.16-11.65c7.25,0,11.65,5.21,11.65,11.65S365.91,184.86,358.66,184.86Zm0-27.18a11.19,11.19,0,0,1-11.16-11.44c0-6.65,4.72-11.87,11.16-11.87,7.25,0,11.65,5.22,11.65,11.87C370.31,152.46,365.91,157.68,358.66,157.68Zm-25.42,54.8a12.07,12.07,0,0,1-11.87-12.08,11.65,11.65,0,1,1,23.3,0C344.67,206.83,339.46,212.48,333.24,212.48Zm0-27.62a11.65,11.65,0,1,1,11.43-11.65A11.7,11.7,0,0,1,333.24,184.86Zm0-54.37a11.65,11.65,0,1,1,11.43-11.65A11.7,11.7,0,0,1,333.24,130.49Zm0-27.19c-6.65,0-11.87-4.44-11.87-11.65a11.65,11.65,0,1,1,23.3,0C344.67,98.86,339.46,103.3,333.24,103.3Zm0-28c-6.65,0-11.87-4.44-11.87-11.65a11.65,11.65,0,1,1,23.3,0C344.67,70.86,339.46,75.3,333.24,75.3ZM307.39,239.23a11.65,11.65,0,1,1,0-23.3c6.44,0,12,5.22,12,11.65A11.87,11.87,0,0,1,307.39,239.23Zm0-54.37a11.65,11.65,0,1,1,0-23.3c6.44,0,12,5.21,12,11.65S313.83,184.86,307.39,184.86Zm0-54.37a11.65,11.65,0,1,1,0-23.3c6.44,0,12,5.21,12,11.65S313.83,130.49,307.39,130.49Zm0-27.19c-6.43,0-11.65-4.44-11.65-11.65A11.66,11.66,0,0,1,307.39,80c6.44,0,12,5.22,12,11.65C319.42,98.86,313.83,103.3,307.39,103.3Zm0-28c-6.43,0-11.65-4.44-11.65-11.65A11.66,11.66,0,0,1,307.39,52c6.44,0,12,5.22,12,11.65C319.42,70.86,313.83,75.3,307.39,75.3Zm-25.63,82.38a11.66,11.66,0,1,1,11.65-11.44A11.61,11.61,0,0,1,281.76,157.68Zm0-27.19a11.65,11.65,0,1,1,11.65-11.65A11.65,11.65,0,0,1,281.76,130.49Zm-25.64,0a11.65,11.65,0,1,1,11.66-11.65A11.66,11.66,0,0,1,256.12,130.49ZM254,146.24a11.65,11.65,0,1,1-11.65-11.87A11.61,11.61,0,0,1,254,146.24Zm-37.29,66.24c-6.43,0-11.09-5.65-11.09-12.08s4.66-11.66,11.09-11.66a11.66,11.66,0,0,1,11.66,11.66C228.37,206.83,223.15,212.48,216.71,212.48Zm0-27.62c-6.43,0-11.09-5.21-11.09-11.65s4.66-11.65,11.09-11.65a11.65,11.65,0,1,1,0,23.3Zm0-81.56c-6.43,0-11.09-4.44-11.09-11.65,0-6.43,4.66-11.65,11.09-11.65a11.66,11.66,0,0,1,11.66,11.65C228.37,98.86,223.15,103.3,216.71,103.3Zm0-28c-6.43,0-11.09-4.44-11.09-11.65,0-6.43,4.66-11.65,11.09-11.65a11.66,11.66,0,0,1,11.66,11.65C228.37,70.86,223.15,75.3,216.71,75.3Zm-24.9,82.38c-7.16,0-12.38-5.22-12.38-11.44,0-6.65,5.22-11.87,12.38-11.87,5.71,0,10.92,5.22,10.92,11.87C202.73,152.46,197.52,157.68,191.81,157.68Zm0-54.38c-7.16,0-12.38-4.44-12.38-11.65,0-6.43,5.22-11.65,12.38-11.65,5.71,0,10.92,5.22,10.92,11.65C202.73,98.86,197.52,103.3,191.81,103.3Zm0-28c-7.16,0-12.38-4.44-12.38-11.65,0-6.43,5.22-11.65,12.38-11.65,5.71,0,10.92,5.22,10.92,11.65C202.73,70.86,197.52,75.3,191.81,75.3ZM165.45,320.79a11.65,11.65,0,1,1,0-23.3c6.43,0,12.54,5.22,12.54,11.65S171.88,320.79,165.45,320.79Zm0-163.11a11.66,11.66,0,0,1,0-23.31c6.43,0,12.54,5.22,12.54,11.87C178,152.46,171.88,157.68,165.45,157.68Zm0-54.38c-6.32,0-11.65-4.44-11.65-11.65A11.73,11.73,0,0,1,165.45,80C171.88,80,178,85.22,178,91.65,178,98.86,171.88,103.3,165.45,103.3Zm0-28c-6.32,0-11.65-4.44-11.65-11.65A11.73,11.73,0,0,1,165.45,52C171.88,52,178,57.22,178,63.65,178,70.86,171.88,75.3,165.45,75.3Zm-25.63,82.38a11.66,11.66,0,1,1,11.65-11.44A11.61,11.61,0,0,1,139.82,157.68Zm0-54.38c-6.44,0-11.66-4.44-11.66-11.65a11.66,11.66,0,0,1,23.31,0C151.47,98.86,146.25,103.3,139.82,103.3ZM114.18,320.79a11.65,11.65,0,1,1,11.65-11.65A11.65,11.65,0,0,1,114.18,320.79Zm0-54.37a11.65,11.65,0,1,1,11.65-11.65A11.66,11.66,0,0,1,114.18,266.42Zm0-27.19a11.65,11.65,0,1,1,11.65-11.65A11.55,11.55,0,0,1,114.18,239.23Zm0-54.37a11.65,11.65,0,1,1,11.65-11.65A11.65,11.65,0,0,1,114.18,184.86Zm0-27.18a11.66,11.66,0,1,1,11.65-11.44A11.61,11.61,0,0,1,114.18,157.68ZM88.55,320.79a11.65,11.65,0,1,1,11.65-11.65A11.64,11.64,0,0,1,88.55,320.79Zm0-27.18A11.66,11.66,0,1,1,100.2,282,11.65,11.65,0,0,1,88.55,293.61Zm0-27.19a11.65,11.65,0,1,1,11.65-11.65A11.65,11.65,0,0,1,88.55,266.42Zm0-53.94c-6.44,0-11.65-5.65-11.65-12.08a11.65,11.65,0,1,1,23.3,0C100.2,206.83,95,212.48,88.55,212.48Zm0-27.62a11.65,11.65,0,1,1,11.65-11.65A11.64,11.64,0,0,1,88.55,184.86Zm0-54.37a11.65,11.65,0,1,1,11.65-11.65A11.65,11.65,0,0,1,88.55,130.49Zm0-27.19c-6.44,0-11.65-4.44-11.65-11.65a11.65,11.65,0,0,1,23.3,0C100.2,98.86,95,103.3,88.55,103.3Zm0-28c-6.44,0-11.65-4.44-11.65-11.65a11.65,11.65,0,0,1,23.3,0C100.2,70.86,95,75.3,88.55,75.3ZM62.92,293.61A11.66,11.66,0,1,1,74.57,282,11.66,11.66,0,0,1,62.92,293.61Zm0-54.38a11.65,11.65,0,1,1,11.65-11.65A11.55,11.55,0,0,1,62.92,239.23Zm0-54.37a11.65,11.65,0,1,1,11.65-11.65A11.65,11.65,0,0,1,62.92,184.86Zm0-54.37a11.65,11.65,0,1,1,11.65-11.65A11.66,11.66,0,0,1,62.92,130.49Zm0-27.19c-6.44,0-11.66-4.44-11.66-11.65a11.66,11.66,0,0,1,23.31,0C74.57,98.86,69.35,103.3,62.92,103.3ZM37.28,266.42a11.65,11.65,0,1,1,11.66-11.65A11.66,11.66,0,0,1,37.28,266.42Zm0-108.74a11.66,11.66,0,1,1,11.66-11.44A11.61,11.61,0,0,1,37.28,157.68Zm0-27.19a11.65,11.65,0,1,1,11.66-11.65A11.66,11.66,0,0,1,37.28,130.49Zm-25.63,0a11.65,11.65,0,0,1,0-23.3c7.21,0,11.65,5.21,11.65,11.65S18.86,130.49,11.65,130.49Zm230.7,58.25A11.66,11.66,0,0,1,254,200.4c0,6.43-5.22,12.08-11.65,12.08s-11.65-5.65-11.65-12.08A11.65,11.65,0,0,1,242.35,188.74ZM486.82,297.49a11.65,11.65,0,1,1-11.65,11.65A11.65,11.65,0,0,1,486.82,297.49Z"/><path class="cls-2" d="M355,130a70,70,0,1,1-70,70A70,70,0,0,1,355,130Z"/><path class="cls-3" d="M355,130a70,70,0,1,1-70,70A70,70,0,0,1,355,130Z"/><path class="cls-4" d="M395.31,191.29l-2.7,8.31a12.48,12.48,0,0,1-12.09,8.78H368.15l-3.91,13.34-11.66.07,8.66-27.35,5.61,1.85L363,183.17l26.28-.17A6.34,6.34,0,0,1,395.31,191.29Zm-12.55-1.94h-8.43l-4.12,13.05,5.55,0a6.69,6.69,0,0,0,6-4.71L384,191A1.26,1.26,0,0,0,382.76,189.35Zm-29,5.09-8.66,27.4-24.47-.74a6.34,6.34,0,0,1-6.05-8.29l9.67-29.38,11.44-.08L325.93,214c-.26,0,.35.8,1.21.8h8.59l10.64-31.47,13.08-.08-12.51,13.11Z"/><path class="cls-5" d="M264,0c22.91,0,40,17.91,40,40,0,22.91-17.09,40-40,40-22.09,0-40-17.09-40-40A40,40,0,0,1,264,0Z"/><path class="cls-6" d="M264,0c22.91,0,40,17.91,40,40,0,22.91-17.09,40-40,40-22.09,0-40-17.09-40-40A40,40,0,0,1,264,0Z"/><path class="cls-5" d="M420,282c22.91,0,40,17.91,40,40,0,22.91-17.09,40-40,40-22.09,0-40-17.09-40-40A40,40,0,0,1,420,282Z"/><path class="cls-7" d="M420,282c22.91,0,40,17.91,40,40,0,22.91-17.09,40-40,40-22.09,0-40-17.09-40-40A40,40,0,0,1,420,282Z"/><path class="cls-5" d="M151,214a30,30,0,1,1-30,30A30,30,0,0,1,151,214Z"/><path class="cls-8" d="M151,214a30,30,0,1,1-30,30A30,30,0,0,1,151,214Z"/><path class="cls-9" d="M246,303a50,50,0,1,1-50,50A50,50,0,0,1,246,303Z"/><path class="cls-10" d="M246,303a50,50,0,1,1-50,50A50,50,0,0,1,246,303Z"/><path class="cls-4" d="M262.27,346.71v-2.38s-1.54-9-9.11-9.76V330.4s.6-1.94-2.16-1.94a2,2,0,0,0-2.21,1.77v4.25H242.6v-4s-.23-2.2-2.2-2.2a2.35,2.35,0,0,0-2.26,2v4.21l-10.35.09a2.26,2.26,0,0,0-1.79,2.17,4.16,4.16,0,0,0,1.79,3h4.51v26.5h-4.51a2.39,2.39,0,0,0-1.79,2.21,3.09,3.09,0,0,0,1.91,2.54H238v4.22a2.2,2.2,0,0,0,2.37,1.76c2.12,0,2.25-1.51,2.25-1.51v-4.11h6v4.11a2,2,0,0,0,2.24,1.51,2.09,2.09,0,0,0,2.25-1.64v-4.59s9.15-1.46,9.15-10.39v-.83s-.79-5.76-2.87-6.8A11,11,0,0,0,262.27,346.71Zm-25.71-6.83h15.89a5.32,5.32,0,0,1,5.16,5.47c-.08,4.17-2.5,4.92-2.5,4.92H236.56Zm21.05,20.32c-.25,4.09-5.07,5.92-5.07,5.92h-16V354.94h18.75c1.05.33,2.3,4.18,2.3,4.18Z"/><path class="cls-5" d="M523,69a50,50,0,1,1-50,50A50,50,0,0,1,523,69Z"/><path class="cls-11" d="M523,69a50,50,0,1,1-50,50A50,50,0,0,1,523,69Z"/><path class="cls-5" d="M522.23,129.53l-.12-.08-.12.08v-.16l-15-10,15-24V95l.12.19.12-.19v.38l15,24-15,10Zm-.12,3.95,15.12-10-15,20v.31l-.12-.15-.12.15v-.31l-15-20Z"/></svg>